<svg width="143" height="35" viewBox="0 0 143 35" fill="none" xmlns="http://www.w3.org/2000/svg">
<path d="M2.02844 21.146H5.12244C5.98111 21.146 6.72777 21.314 7.36244 21.65C8.00644 21.9767 8.49644 22.4387 8.83244 23.036C9.17777 23.624 9.35044 24.3007 9.35044 25.066C9.35044 25.8313 9.17777 26.5127 8.83244 27.11C8.49644 27.698 8.00644 28.16 7.36244 28.496C6.72777 28.832 5.98111 29 5.12244 29H2.02844V21.146ZM5.09444 28.58C5.88777 28.58 6.56911 28.4307 7.13844 28.132C7.70777 27.8333 8.13711 27.4227 8.42644 26.9C8.72511 26.368 8.87444 25.7567 8.87444 25.066C8.87444 24.3847 8.72511 23.778 8.42644 23.246C8.13711 22.714 7.70777 22.3033 7.13844 22.014C6.56911 21.7153 5.88777 21.566 5.09444 21.566H2.49044V28.58H5.09444ZM20.4708 29L18.5388 26.34C18.1841 26.3773 17.9088 26.396 17.7128 26.396H15.3748V29H14.9128V21.146H17.7128C18.7021 21.146 19.4768 21.3793 20.0368 21.846C20.6061 22.3033 20.8908 22.9427 20.8908 23.764C20.8908 24.3893 20.7228 24.9167 20.3868 25.346C20.0601 25.766 19.5981 26.06 19.0008 26.228L21.0028 29H20.4708ZM17.7128 25.976C18.5901 25.976 19.2575 25.7847 19.7148 25.402C20.1815 25.0193 20.4148 24.4733 20.4148 23.764C20.4148 23.064 20.1815 22.5227 19.7148 22.14C19.2575 21.7573 18.5901 21.566 17.7128 21.566H15.3748V25.976H17.7128ZM32.0941 28.58V29H26.6761V21.146H31.9261V21.566H27.1381V24.814H31.4221V25.22H27.1381V28.58H32.0941ZM37.6738 21.146H38.1358V29H37.6738V21.146Z" fill="black"/>
<path d="M112.452 29L110.52 26.34C110.166 26.3773 109.89 26.396 109.694 26.396H107.356V29H106.894V21.146H109.694C110.684 21.146 111.458 21.3793 112.018 21.846C112.588 22.3033 112.872 22.9427 112.872 23.764C112.872 24.3893 112.704 24.9167 112.368 25.346C112.042 25.766 111.58 26.06 110.982 26.228L112.984 29H112.452ZM109.694 25.976C110.572 25.976 111.239 25.7847 111.696 25.402C112.163 25.0193 112.396 24.4733 112.396 23.764C112.396 23.064 112.163 22.5227 111.696 22.14C111.239 21.7573 110.572 21.566 109.694 21.566H107.356V25.976H109.694ZM123.348 26.718H118.658L117.594 29H117.104L120.772 21.146H121.234L124.916 29H124.412L123.348 26.718ZM123.166 26.312L121.01 21.664L118.84 26.312H123.166ZM129.819 21.146H132.913C133.772 21.146 134.519 21.314 135.153 21.65C135.797 21.9767 136.287 22.4387 136.623 23.036C136.969 23.624 137.141 24.3007 137.141 25.066C137.141 25.8313 136.969 26.5127 136.623 27.11C136.287 27.698 135.797 28.16 135.153 28.496C134.519 28.832 133.772 29 132.913 29H129.819V21.146ZM132.885 28.58C133.679 28.58 134.36 28.4307 134.929 28.132C135.499 27.8333 135.928 27.4227 136.217 26.9C136.516 26.368 136.665 25.7567 136.665 25.066C136.665 24.3847 136.516 23.778 136.217 23.246C135.928 22.714 135.499 22.3033 134.929 22.014C134.36 21.7153 133.679 21.566 132.885 21.566H130.281V28.58H132.885Z" fill="black"/>
<path d="M56.2734 7.09568C56.0644 7.10091 55.8557 7.14947 55.6638 7.24188C55.2801 7.42669 54.9932 7.83693 54.9505 8.345L54.0296 19.2433C53.919 20.561 54.0651 22.3366 55.3915 23.6956L61.189 29.6365C61.7347 30.1956 62.038 30.6519 62.045 31.3111L62.0709 34.1154C62.0718 34.1713 62.0834 34.2264 62.105 34.2777C62.1267 34.3289 62.1579 34.3753 62.1971 34.4142C62.2362 34.4531 62.2825 34.4837 62.3331 34.5042C62.3838 34.5248 62.438 34.5349 62.4925 34.5341C62.547 34.5332 62.6008 34.5213 62.6508 34.4992C62.7008 34.477 62.7461 34.4449 62.784 34.4048C62.822 34.3647 62.8518 34.3173 62.8719 34.2654C62.892 34.2135 62.9019 34.158 62.901 34.1021L62.8751 31.2978C62.8651 30.3588 62.3902 29.6579 61.7856 29.0384L55.9751 23.0975C54.8814 21.9768 54.7595 20.5167 54.8597 19.323L55.7806 8.42474C55.8032 8.15544 55.876 8.07922 56.014 8.01273C56.1521 7.94624 56.3988 7.91936 56.6755 7.99944C57.2289 8.15955 57.8374 8.68064 57.9854 9.38166L58.9322 13.8473C58.9383 13.9071 58.9567 13.9648 58.9862 14.0168C59.0156 14.0687 59.0555 14.1137 59.1031 14.1487C59.1507 14.1837 59.2051 14.208 59.2626 14.22C59.32 14.2319 59.3793 14.2312 59.4365 14.218C59.4937 14.2048 59.5475 14.1793 59.5944 14.1432C59.6413 14.1071 59.6801 14.0612 59.7085 14.0086C59.7368 13.956 59.7539 13.8979 59.7587 13.838C59.7636 13.7781 59.7559 13.7179 59.7364 13.6612L58.8025 9.20888C58.5774 8.14281 57.7311 7.43037 56.896 7.18872C56.6872 7.1283 56.4825 7.09044 56.2734 7.09568ZM86.7395 7.09568C86.5305 7.09045 86.3128 7.1283 86.104 7.18872C85.2689 7.43037 84.4355 8.14281 84.2104 9.20888L83.2766 13.6612C83.257 13.7179 83.2494 13.7781 83.2542 13.838C83.259 13.8979 83.2762 13.956 83.3045 14.0086C83.3328 14.0612 83.3717 14.1071 83.4186 14.1432C83.4655 14.1793 83.5193 14.2048 83.5765 14.218C83.6337 14.2312 83.693 14.2319 83.7504 14.22C83.8079 14.208 83.8622 14.1837 83.9099 14.1487C83.9575 14.1137 83.9974 14.0687 84.0268 14.0168C84.0563 13.9648 84.0746 13.9071 84.0807 13.8473L85.0275 9.38166C85.1756 8.68064 85.7841 8.15955 86.3375 7.99944C86.6142 7.91938 86.8609 7.94627 86.9989 8.01273C87.137 8.07922 87.2098 8.15544 87.2324 8.42474L88.1533 19.323C88.2535 20.5167 88.1186 21.9768 87.0249 23.0975L81.2274 29.0384C80.6228 29.6579 80.1478 30.3588 80.1379 31.2978L80.099 34.1021C80.0981 34.158 80.108 34.2135 80.1281 34.2654C80.1482 34.3173 80.178 34.3647 80.216 34.4048C80.2539 34.4449 80.2992 34.477 80.3492 34.4992C80.3992 34.5213 80.453 34.5332 80.5075 34.5341C80.562 34.5349 80.6162 34.5248 80.6669 34.5042C80.7175 34.4837 80.7638 34.4531 80.8029 34.4142C80.8421 34.3753 80.8733 34.3289 80.895 34.2777C80.9166 34.2264 80.9282 34.1713 80.9291 34.1154L80.968 31.3111C80.9749 30.6519 81.2653 30.1956 81.811 29.6365L87.6085 23.6956C88.9349 22.3366 89.081 20.561 88.9704 19.2433L88.0625 8.345C88.0198 7.83693 87.7329 7.42669 87.3491 7.24188C87.1572 7.14947 86.9486 7.10092 86.7395 7.09568ZM59.4899 16.2396C58.4976 16.3756 57.853 17.2173 57.5963 18.1003C57.3434 18.9706 57.4139 19.9756 58.0762 20.559C58.0859 20.5675 58.0923 20.5771 58.1022 20.5856L62.7454 25.3436C62.7819 25.3901 62.8276 25.4282 62.8795 25.4554C62.9313 25.4826 62.9882 25.4983 63.0463 25.5015C63.1045 25.5047 63.1627 25.4953 63.2171 25.4739C63.2715 25.4526 63.3209 25.4197 63.3621 25.3775C63.4033 25.3353 63.4353 25.2847 63.4562 25.2289C63.477 25.1732 63.4862 25.1136 63.483 25.054C63.4799 24.9944 63.4646 24.9361 63.4381 24.883C63.4115 24.8298 63.3744 24.783 63.329 24.7456L58.6599 19.961C58.6516 19.9517 58.643 19.9428 58.6339 19.9344C58.3276 19.6769 58.2103 19.007 58.4005 18.3528C58.5714 17.7647 58.956 17.3076 59.451 17.1566L63.1863 20.9843C63.2597 21.0572 63.3566 21.0998 63.4587 21.1039C66.4086 21.2577 68.4355 22.9661 68.5948 25.2506L69.2433 34.5407C69.2475 34.5966 69.2625 34.651 69.2873 34.7009C69.312 34.7509 69.3462 34.7953 69.3877 34.8317C69.4293 34.8681 69.4774 34.8958 69.5294 34.9131C69.5814 34.9305 69.6362 34.9371 69.6907 34.9328C69.7452 34.9284 69.7983 34.9131 69.8471 34.8877C69.8958 34.8623 69.9392 34.8273 69.9747 34.7847C70.0102 34.7421 70.0372 34.6928 70.0541 34.6395C70.0711 34.5863 70.0776 34.5301 70.0733 34.4743L69.4248 25.1842C69.2355 22.4691 66.8334 20.5305 63.6792 20.2932L59.8401 16.3592C59.7947 16.3129 59.7395 16.2781 59.6787 16.2573C59.618 16.2366 59.5534 16.2305 59.4899 16.2396ZM83.3933 16.2396C83.305 16.2527 83.2231 16.2947 83.1599 16.3592L79.3338 20.2932C76.1796 20.5305 73.7645 22.4691 73.5752 25.1842L72.9397 34.4743C72.9255 34.5341 72.9241 34.5963 72.9357 34.6567C72.9473 34.7171 72.9716 34.7742 73.0068 34.8241C73.042 34.874 73.0874 34.9154 73.1398 34.9455C73.1921 34.9757 73.2503 34.9938 73.3102 34.9987C73.37 35.0035 73.4302 34.995 73.4866 34.9737C73.543 34.9524 73.5941 34.9189 73.6366 34.8753C73.6791 34.8318 73.7118 34.7793 73.7325 34.7215C73.7533 34.6638 73.7615 34.6021 73.7567 34.5407L74.4052 25.2506C74.5645 22.9661 76.6043 21.2577 79.5543 21.1039C79.6563 21.0998 79.7533 21.0572 79.8266 20.9843L83.5619 17.1566C84.057 17.3076 84.4416 17.7647 84.6125 18.3528C84.8027 19.007 84.6854 19.6769 84.379 19.9344C84.3656 19.9425 84.3526 19.9514 84.3401 19.961L79.684 24.7456C79.6386 24.783 79.6014 24.8298 79.5749 24.883C79.5484 24.9361 79.533 24.9944 79.5299 25.054C79.5268 25.1136 79.536 25.1732 79.5568 25.2289C79.5777 25.2847 79.6097 25.3353 79.6509 25.3775C79.6921 25.4197 79.7415 25.4526 79.7959 25.4739C79.8503 25.4953 79.9085 25.5047 79.9666 25.5015C80.0248 25.4983 80.0817 25.4826 80.1335 25.4554C80.1854 25.4282 80.2311 25.3901 80.2676 25.3436L84.8978 20.5856L84.9367 20.559L84.9238 20.5457C85.5792 19.9613 85.6557 18.9673 85.4037 18.1003C85.147 17.2173 84.5024 16.3756 83.5101 16.2396C83.4713 16.234 83.432 16.234 83.3933 16.2396Z" fill="black"/>
<path d="M67.0702 6.79133H75.8383C76.0474 6.79133 76.2434 6.6962 76.3762 6.53039C76.509 6.36474 76.5619 6.14889 76.5255 5.96566L76.1072 2.12814C76.0427 1.79429 75.7557 1.55205 75.4241 1.55205H67.4841C67.1525 1.55205 66.8654 1.79429 66.7969 2.15532L66.3867 5.9388C66.3465 6.14937 66.3995 6.36506 66.5323 6.53071C66.665 6.69636 66.8611 6.79133 67.0702 6.79133ZM67.0172 6.03825L67.4273 2.25509C67.4326 2.22727 67.4566 2.20697 67.4841 2.20697H75.4241C75.4515 2.20697 75.4755 2.22727 75.4768 2.22791L75.895 6.06559C75.8997 6.0883 75.891 6.10493 75.8832 6.11468C75.8754 6.12459 75.861 6.13643 75.8383 6.13643H67.0702C67.0474 6.13643 67.0331 6.12459 67.0253 6.11468C67.0172 6.10476 67.0088 6.08814 67.0172 6.03825Z" fill="black"/>
<path d="M62.046 8.35042H62.3352V9.21191C62.3352 9.78591 62.7902 10.2528 63.3496 10.2528H64.5844V14.5164C64.5844 15.1089 64.7897 15.653 65.1308 16.0786V17.9341C65.1308 18.3854 65.4885 18.7527 65.9286 18.7527H67.106C67.5461 18.7527 67.9039 18.3854 67.9039 17.9341V16.9821C67.9366 16.9821 70.0284 16.9826 69.895 16.9826V18.8814C69.895 19.4231 70.3245 19.8638 70.8524 19.8638H72.0554C72.5834 19.8638 73.0128 19.4231 73.0128 18.8814V16.9826C73.0456 16.9826 75.138 16.9821 75.0046 16.9821V17.9341C75.0046 18.3854 75.3624 18.7527 75.8024 18.7527H76.9799C77.4199 18.7527 77.7777 18.3854 77.7777 17.9341V16.0775C78.1182 15.652 78.3231 15.1084 78.3231 14.5164V10.2528H79.5588C80.1182 10.2528 80.5733 9.78591 80.5733 9.21191V8.35042H80.8625C81.2299 8.35042 81.5291 8.04343 81.5291 7.66625V5.89163C81.5291 5.51429 81.2299 5.2073 80.8625 5.2073H79.6455C79.278 5.2073 78.9788 5.51429 78.9788 5.89163V7.66625C78.9788 8.04343 79.278 8.35042 79.6455 8.35042H79.935V9.21191C79.935 9.42472 79.7664 9.59788 79.5588 9.59788H78.3231V7.5033C78.3231 7.50264 78.3234 7.50206 78.3234 7.5014V1.04088C78.3234 0.466879 77.8684 0 77.309 0H65.5995C65.0401 0 64.5851 0.466879 64.5851 1.04088V7.4996C64.5851 7.50056 64.5844 7.50138 64.5844 7.50236V9.59788H63.3496C63.1421 9.59788 62.9735 9.42472 62.9735 9.2119V8.35042H63.2627C63.6304 8.35042 63.9296 8.04343 63.9296 7.66625V5.89163C63.9296 5.51429 63.6304 5.2073 63.2627 5.2073H62.046C61.6782 5.2073 61.3791 5.51429 61.3791 5.89163V7.66625C61.3791 8.04343 61.6782 8.35042 62.046 8.35042ZM79.6171 7.66625V5.89163C79.6171 5.87548 79.6299 5.86221 79.6455 5.86221H80.8625C80.8781 5.86221 80.8908 5.87548 80.8908 5.89163V7.66625C80.8908 7.6824 80.8781 7.69551 80.8625 7.69551H79.6455C79.6299 7.69551 79.6171 7.6824 79.6171 7.66625ZM71.4542 8.67436C73.4909 8.67436 75.6757 8.40603 77.6848 7.9192V14.5164C77.6848 15.5217 76.8788 16.3272 75.9171 16.3272H74.471C74.3107 14.7642 73.0192 13.5419 71.4542 13.5419C69.8892 13.5419 68.5975 14.7642 68.4372 16.3272H66.9907C66.505 16.3272 66.0234 16.1164 65.6871 15.7332C65.6849 15.7307 65.6819 15.7294 65.6796 15.7269C65.3967 15.4058 65.2227 14.9821 65.2227 14.5164V9.92852C65.2227 9.9274 65.2233 9.92646 65.2233 9.92534C65.2233 9.92423 65.2227 9.92328 65.2227 9.92217V7.9192C67.1646 8.38979 69.3426 8.67436 71.4542 8.67436ZM69.0795 16.3272C69.2362 15.1262 70.2414 14.1968 71.4542 14.1968C72.6667 14.1968 73.672 15.1262 73.8287 16.3272C71.7996 16.3272 71.0751 16.3272 69.0795 16.3272ZM67.2656 17.9341C67.2656 18.0228 67.1927 18.0978 67.106 18.0978H65.9286C65.842 18.0978 65.769 18.0228 65.769 17.9341V16.6388C66.1169 16.8506 66.5356 16.9752 66.9611 16.9805C66.9709 16.9807 66.9804 16.9826 66.9901 16.9826H67.2656V17.9341ZM72.3746 18.8814C72.3746 19.0619 72.2315 19.2089 72.0554 19.2089H70.8524C70.6763 19.2089 70.5333 19.0619 70.5333 18.8814V16.9826H72.3746V18.8814ZM77.1394 17.9341C77.1394 18.0228 77.0665 18.0978 76.9799 18.0978H75.8024C75.7158 18.0978 75.6429 18.0228 75.6429 17.9341V16.9826H75.9184C76.3157 16.9826 76.7368 16.8739 77.1081 16.656C77.1183 16.65 77.1294 16.6459 77.1394 16.6398V17.9341ZM65.5995 0.65491H77.309C77.5165 0.65491 77.6852 0.828071 77.6852 1.04088V7.24306C73.692 8.23384 69.5305 8.31187 65.2233 7.24328V1.04088C65.2233 0.828071 65.3919 0.65491 65.5995 0.65491ZM62.0173 5.89163C62.0173 5.87548 62.0301 5.86221 62.046 5.86221H63.2627C63.2786 5.86221 63.2914 5.87548 63.2914 5.89163V7.66625C63.2914 7.6824 63.2786 7.69551 63.2627 7.69551H62.046C62.0301 7.69551 62.0173 7.6824 62.0173 7.66625V5.89163Z" fill="black"/>
<path d="M71.2348 12.8625C72.1779 12.8625 72.9449 12.0755 72.9449 11.108C72.9449 10.1407 72.1779 9.35373 71.2348 9.35373C70.2921 9.35373 69.5251 10.1407 69.5251 11.108C69.5251 12.0755 70.2921 12.8625 71.2348 12.8625ZM71.2348 10.0086C71.8257 10.0086 72.3066 10.5019 72.3066 11.108C72.3066 11.7143 71.8257 12.2076 71.2348 12.2076C70.6439 12.2076 70.1634 11.7143 70.1634 11.108C70.1634 10.5019 70.6439 10.0086 71.2348 10.0086Z" fill="black"/>
<path d="M66.3397 11.1224C66.5161 11.1224 66.6588 10.9758 66.6588 10.795V9.81261C66.6588 9.63178 66.5161 9.48516 66.3397 9.48516C66.1633 9.48516 66.0205 9.63178 66.0205 9.81261V10.795C66.0205 10.9758 66.1633 11.1224 66.3397 11.1224Z" fill="black"/>
<path d="M66.3397 13.5783C66.5161 13.5783 66.6588 13.4317 66.6588 13.2509V11.9411C66.6588 11.7602 66.5161 11.6136 66.3397 11.6136C66.1633 11.6136 66.0205 11.7602 66.0205 11.9411V13.2509C66.0205 13.4317 66.1633 13.5783 66.3397 13.5783Z" fill="black"/>
</svg>
