<svg width="82" height="82" viewBox="0 0 82 82" fill="none" xmlns="http://www.w3.org/2000/svg">
<mask id="path-1-inside-1" fill="white">
<path d="M5.32631 16.6242C4.83652 16.6364 4.34771 16.7502 3.89814 16.9667C2.999 17.3997 2.32683 18.3608 2.22689 19.5511L0.0694497 45.0842C-0.189739 48.1715 0.152637 52.3314 3.26003 55.5154L16.8428 69.4341C18.1212 70.7441 18.8319 71.8129 18.8483 73.3575L18.909 79.9276C18.911 80.0584 18.9382 80.1876 18.9889 80.3077C19.0396 80.4278 19.1129 80.5365 19.2046 80.6276C19.2963 80.7186 19.4046 80.7903 19.5233 80.8385C19.6421 80.8867 19.7689 80.9104 19.8966 80.9084C20.0243 80.9063 20.1504 80.8785 20.2676 80.8266C20.3848 80.7746 20.4908 80.6995 20.5797 80.6055C20.6686 80.5116 20.7386 80.4006 20.7856 80.2789C20.8326 80.1572 20.8558 80.0273 20.8538 79.8964L20.793 73.3263C20.7697 71.1263 19.6571 69.4842 18.2405 68.0329L4.62742 54.1142C2.06501 51.4886 1.77938 48.0678 2.01418 45.271L4.17162 19.738C4.2246 19.107 4.3951 18.9285 4.71858 18.7727C5.04206 18.6169 5.62006 18.5539 6.26829 18.7415C7.56474 19.1167 8.99053 20.3375 9.33732 21.9799L11.5555 32.4422C11.5698 32.5822 11.6128 32.7176 11.6818 32.8393C11.7508 32.961 11.8442 33.0664 11.9559 33.1484C12.0675 33.2305 12.1948 33.2874 12.3294 33.3154C12.464 33.3433 12.6029 33.3418 12.7369 33.3108C12.8709 33.2798 12.997 33.22 13.1068 33.1355C13.2167 33.0509 13.3078 32.9435 13.3741 32.8202C13.4405 32.697 13.4807 32.5607 13.4919 32.4204C13.5032 32.2802 13.4853 32.139 13.4395 32.0063L11.2517 21.5751C10.7243 19.0774 8.74151 17.4083 6.78486 16.8421C6.29569 16.7006 5.8161 16.6119 5.32631 16.6242ZM76.7041 16.6242C76.2143 16.6119 75.7043 16.7006 75.2152 16.8421C73.2585 17.4083 71.3061 19.0774 70.7787 21.5751L68.5909 32.0063C68.5451 32.139 68.5272 32.2802 68.5385 32.4204C68.5497 32.5607 68.5899 32.697 68.6562 32.8202C68.7226 32.9435 68.8137 33.0509 68.9236 33.1355C69.0334 33.22 69.1595 33.2798 69.2935 33.3108C69.4275 33.3418 69.5664 33.3433 69.701 33.3154C69.8356 33.2874 69.9629 33.2305 70.0745 33.1484C70.1862 33.0664 70.2795 32.961 70.3485 32.8393C70.4175 32.7176 70.4606 32.5822 70.4749 32.4422L72.6931 21.9799C73.0399 20.3375 74.4656 19.1167 75.7621 18.7415C76.4103 18.554 76.9883 18.617 77.3118 18.7727C77.6353 18.9285 77.8058 19.107 77.8588 19.738L80.0162 45.271C80.251 48.0678 79.935 51.4886 77.3726 54.1142L63.7898 68.0329C62.3733 69.4842 61.2606 71.1263 61.2374 73.3263L61.1462 79.8964C61.1442 80.0273 61.1674 80.1572 61.2144 80.2789C61.2614 80.4006 61.3314 80.5116 61.4203 80.6055C61.5092 80.6995 61.6152 80.7746 61.7324 80.8266C61.8497 80.8785 61.9757 80.9063 62.1034 80.9084C62.2311 80.9104 62.3579 80.8867 62.4767 80.8385C62.5954 80.7903 62.7037 80.7186 62.7954 80.6276C62.8871 80.5365 62.9604 80.4278 63.0111 80.3077C63.0618 80.1876 63.089 80.0584 63.091 79.9276L63.1821 73.3575C63.1985 71.8129 63.8788 70.7441 65.1572 69.4341L78.74 55.5154C81.8474 52.3314 82.1898 48.1715 81.9306 45.0842L79.8035 19.5511C79.7036 18.3608 79.0314 17.3997 78.1322 16.9667C77.6827 16.7502 77.1939 16.6364 76.7041 16.6242ZM12.8621 38.0471C10.5373 38.3657 9.02697 40.3377 8.42572 42.4064C7.8331 44.4453 7.99821 46.8 9.55002 48.1669C9.57261 48.1868 9.58762 48.2092 9.6108 48.2292L20.4891 59.3765C20.5748 59.4854 20.6818 59.5746 20.8033 59.6383C20.9248 59.702 21.058 59.7388 21.1943 59.7463C21.3306 59.7538 21.4669 59.7318 21.5943 59.6818C21.7217 59.6317 21.8375 59.5548 21.934 59.4559C22.0305 59.357 22.1056 59.2384 22.1544 59.1078C22.2033 58.9772 22.2247 58.8376 22.2174 58.6979C22.2101 58.5583 22.1742 58.4217 22.112 58.2973C22.0499 58.1728 21.9628 58.0631 21.8565 57.9753L10.9174 46.7657C10.8981 46.744 10.8778 46.7232 10.8566 46.7034C10.1388 46.1003 9.86417 44.5308 10.3097 42.998C10.7101 41.6201 11.6111 40.5493 12.771 40.1956L21.5223 49.1633C21.6941 49.334 21.9213 49.4338 22.1604 49.4435C29.0717 49.8038 33.8202 53.8062 34.1934 59.1586L35.7128 80.924C35.7227 81.0548 35.7578 81.1824 35.8158 81.2994C35.8739 81.4163 35.9539 81.5204 36.0513 81.6057C36.1486 81.691 36.2614 81.7558 36.3832 81.7965C36.505 81.8371 36.6334 81.8528 36.7611 81.8425C36.8888 81.8323 37.0133 81.7964 37.1274 81.7369C37.2416 81.6774 37.3432 81.5954 37.4264 81.4956C37.5096 81.3959 37.5729 81.2803 37.6125 81.1555C37.6522 81.0307 37.6675 80.8991 37.6575 80.7683L36.1382 59.0029C35.6946 52.642 30.0669 48.1001 22.677 47.5441L13.6826 38.3273C13.5762 38.2189 13.4468 38.1372 13.3044 38.0886C13.1621 38.04 13.0107 38.0257 12.8621 38.0471ZM68.8644 38.0471C68.6574 38.0778 68.4656 38.176 68.3174 38.3273L59.3534 47.5441C51.9635 48.1001 46.3054 52.642 45.8618 59.0029L44.3729 80.7683C44.3397 80.9084 44.3365 81.0543 44.3637 81.1958C44.3909 81.3373 44.4477 81.4711 44.5302 81.5879C44.6127 81.7047 44.719 81.8018 44.8417 81.8724C44.9644 81.943 45.1006 81.9855 45.2409 81.9969C45.3812 82.0083 45.5223 81.9884 45.6543 81.9385C45.7864 81.8886 45.9063 81.8099 46.0058 81.7079C46.1052 81.6059 46.1819 81.4829 46.2305 81.3476C46.2791 81.2123 46.2985 81.0677 46.2872 80.924L47.8066 59.1586C48.1798 53.8062 52.9587 49.8038 59.87 49.4435C60.1091 49.4338 60.3363 49.334 60.5081 49.1633L69.2594 40.1956C70.4193 40.5493 71.3203 41.6201 71.7207 42.998C72.1662 44.5308 71.8916 46.1003 71.1738 46.7034C71.1423 46.7224 71.1118 46.7432 71.0826 46.7657L60.1739 57.9753C60.0676 58.0631 59.9805 58.1728 59.9184 58.2973C59.8562 58.4217 59.8203 58.5583 59.813 58.6979C59.8057 58.8376 59.8271 58.9772 59.876 59.1078C59.9248 59.2384 59.9999 59.357 60.0964 59.4559C60.1929 59.5548 60.3086 59.6317 60.4361 59.6818C60.5635 59.7318 60.6998 59.7538 60.8361 59.7463C60.9724 59.7388 61.1056 59.702 61.2271 59.6383C61.3486 59.5746 61.4556 59.4854 61.5412 59.3765L72.3892 48.2292L72.4804 48.1669L72.45 48.1357C73.9856 46.7666 74.1647 44.4378 73.5743 42.4064C72.973 40.3377 71.4627 38.3657 69.1379 38.0471C69.0472 38.0339 68.9551 38.0339 68.8644 38.0471Z"/>
<path d="M30.6216 15.9111H51.164C51.6539 15.9111 52.1132 15.6882 52.4242 15.2998C52.7353 14.9117 52.8594 14.406 52.774 13.9767L51.7941 4.98592C51.643 4.20376 50.9705 3.63623 50.1936 3.63623H31.5912C30.8143 3.63623 30.1419 4.20376 29.9812 5.0496L29.0203 13.9138C28.9261 14.4071 29.0503 14.9124 29.3613 15.3005C29.6724 15.6886 30.1316 15.9111 30.6216 15.9111ZM30.4974 14.1468L31.4583 5.28336C31.4708 5.21818 31.527 5.17061 31.5912 5.17061H50.1936C50.2578 5.17061 50.3141 5.21818 50.317 5.21968L51.2969 14.2108C51.3078 14.264 51.2874 14.303 51.2691 14.3258C51.2509 14.349 51.2173 14.3768 51.164 14.3768H30.6216C30.5683 14.3768 30.5347 14.3491 30.5164 14.3258C30.4974 14.3026 30.4777 14.2636 30.4974 14.1468Z"/>
<path d="M18.8506 19.5638H19.5282V21.5822C19.5282 22.927 20.5942 24.0208 21.9049 24.0208H24.7978V34.0099C24.7978 35.3979 25.2786 36.6726 26.0778 37.6698V42.017C26.0778 43.0745 26.916 43.9349 27.947 43.9349H30.7055C31.7365 43.9349 32.5748 43.0745 32.5748 42.017V39.7866C32.6515 39.7866 37.5523 39.7878 37.2398 39.7877V44.2365C37.2398 45.5056 38.2459 46.538 39.4828 46.538H42.3013C43.5382 46.538 44.5443 45.5056 44.5443 44.2365V39.7877C44.6211 39.7877 49.5233 39.7865 49.2108 39.7866V42.017C49.2108 43.0745 50.049 43.9349 51.08 43.9349H53.8386C54.8695 43.9349 55.7078 43.0745 55.7078 42.017V37.6673C56.5056 36.6704 56.9855 35.3967 56.9855 34.0099V24.0208H59.8807C61.1913 24.0208 62.2573 22.927 62.2573 21.5822V19.5638H62.9349C63.7958 19.5638 64.4968 18.8446 64.4968 17.9609V13.8032C64.4968 12.9192 63.7958 12.2 62.9349 12.2H60.0836C59.2228 12.2 58.5218 12.9192 58.5218 13.8032V17.9609C58.5218 18.8446 59.2228 19.5638 60.0836 19.5638H60.762V21.5822C60.762 22.0808 60.367 22.4865 59.8807 22.4865H56.9856V17.5792C56.9856 17.5776 56.9863 17.5763 56.9863 17.5747V2.43864C56.9863 1.09383 55.9203 0 54.6096 0H27.1759C25.8653 0 24.7993 1.09383 24.7993 2.43864V17.5705C24.7993 17.5727 24.7978 17.5747 24.7978 17.577V22.4865H21.9049C21.4186 22.4865 21.0236 22.0808 21.0236 21.5822V19.5638H21.7012C22.5628 19.5638 23.2637 18.8446 23.2637 17.9609V13.8032C23.2637 12.9192 22.5628 12.2 21.7012 12.2H18.8506C17.989 12.2 17.2881 12.9192 17.2881 13.8032V17.9609C17.2881 18.8446 17.989 19.5638 18.8506 19.5638ZM60.0172 17.9609V13.8032C60.0172 13.7654 60.0471 13.7343 60.0836 13.7343H62.9349C62.9714 13.7343 63.0014 13.7654 63.0014 13.8032V17.9609C63.0014 17.9988 62.9714 18.0295 62.9349 18.0295H60.0836C60.0471 18.0295 60.0172 17.9988 60.0172 17.9609ZM40.8928 20.3228C45.6644 20.3228 50.783 19.6941 55.4902 18.5535V34.0099C55.4902 36.365 53.6017 38.2522 51.3487 38.2522H47.9606C47.5852 34.5905 44.5593 31.7267 40.8928 31.7267C37.2262 31.7267 34.1997 34.5905 33.8242 38.2522H30.4354C29.2975 38.2522 28.1691 37.7584 27.3811 36.8606C27.376 36.8548 27.369 36.8516 27.3637 36.846C26.7007 36.0936 26.2932 35.1008 26.2932 34.0099V23.2611C26.2932 23.2585 26.2946 23.2563 26.2946 23.2537C26.2946 23.251 26.2932 23.2488 26.2932 23.2462V18.5536C30.8428 19.6561 35.9455 20.3228 40.8928 20.3228ZM35.3291 38.2522C35.6962 35.4384 38.0513 33.2611 40.8928 33.2611C43.7335 33.2611 46.0887 35.4384 46.4557 38.2522C41.7018 38.2522 40.0045 38.2522 35.3291 38.2522ZM31.0794 42.017C31.0794 42.2249 30.9085 42.4006 30.7055 42.4006H27.947C27.744 42.4006 27.5731 42.2249 27.5731 42.017V38.9823C28.3882 39.4786 29.3691 39.7705 30.3661 39.783C30.3889 39.7833 30.4111 39.7877 30.4339 39.7877H31.0794V42.017ZM43.049 44.2365C43.049 44.6594 42.7138 45.0037 42.3013 45.0037H39.4828C39.0703 45.0037 38.7351 44.6594 38.7351 44.2365V39.7877H43.049V44.2365ZM54.2124 42.017C54.2124 42.2249 54.0415 42.4006 53.8386 42.4006H51.08C50.877 42.4006 50.7062 42.2249 50.7062 42.017V39.7877H51.3516C52.2826 39.7877 53.2691 39.5332 54.139 39.0226C54.1628 39.0086 54.1888 38.9989 54.2124 38.9846V42.017ZM27.1759 1.53436H54.6096C55.0959 1.53436 55.4909 1.94005 55.4909 2.43864V16.9695C46.1355 19.2907 36.3856 19.4735 26.2946 16.97V2.43864C26.2946 1.94005 26.6896 1.53436 27.1759 1.53436ZM18.7834 13.8032C18.7834 13.7654 18.8134 13.7343 18.8506 13.7343H21.7012C21.7384 13.7343 21.7684 13.7654 21.7684 13.8032V17.9609C21.7684 17.9988 21.7384 18.0295 21.7012 18.0295H18.8506C18.8134 18.0295 18.7834 17.9988 18.7834 17.9609V13.8032Z"/>
<path d="M40.3787 30.135C42.5882 30.135 44.3851 28.2913 44.3851 26.0246C44.3851 23.7582 42.5882 21.9145 40.3787 21.9145C38.17 21.9145 36.3731 23.7582 36.3731 26.0246C36.3731 28.2913 38.17 30.135 40.3787 30.135ZM40.3787 23.4488C41.7631 23.4488 42.8898 24.6045 42.8898 26.0246C42.8898 27.445 41.7631 28.6007 40.3787 28.6007C38.9944 28.6007 37.8684 27.445 37.8684 26.0246C37.8684 24.6045 38.9944 23.4488 40.3787 23.4488Z"/>
<path d="M28.9101 26.0583C29.3233 26.0583 29.6578 25.7148 29.6578 25.2911V22.9896C29.6578 22.5659 29.3233 22.2224 28.9101 22.2224C28.4968 22.2224 28.1624 22.5659 28.1624 22.9896V25.2911C28.1624 25.7148 28.4968 26.0583 28.9101 26.0583Z"/>
<path d="M28.9101 31.8121C29.3233 31.8121 29.6578 31.4686 29.6578 31.0449V27.9762C29.6578 27.5526 29.3233 27.209 28.9101 27.209C28.4968 27.209 28.1624 27.5526 28.1624 27.9762V31.0449C28.1624 31.4686 28.4968 31.8121 28.9101 31.8121Z"/>
</mask>
<path d="M5.32631 16.6242C4.83652 16.6364 4.34771 16.7502 3.89814 16.9667C2.999 17.3997 2.32683 18.3608 2.22689 19.5511L0.0694497 45.0842C-0.189739 48.1715 0.152637 52.3314 3.26003 55.5154L16.8428 69.4341C18.1212 70.7441 18.8319 71.8129 18.8483 73.3575L18.909 79.9276C18.911 80.0584 18.9382 80.1876 18.9889 80.3077C19.0396 80.4278 19.1129 80.5365 19.2046 80.6276C19.2963 80.7186 19.4046 80.7903 19.5233 80.8385C19.6421 80.8867 19.7689 80.9104 19.8966 80.9084C20.0243 80.9063 20.1504 80.8785 20.2676 80.8266C20.3848 80.7746 20.4908 80.6995 20.5797 80.6055C20.6686 80.5116 20.7386 80.4006 20.7856 80.2789C20.8326 80.1572 20.8558 80.0273 20.8538 79.8964L20.793 73.3263C20.7697 71.1263 19.6571 69.4842 18.2405 68.0329L4.62742 54.1142C2.06501 51.4886 1.77938 48.0678 2.01418 45.271L4.17162 19.738C4.2246 19.107 4.3951 18.9285 4.71858 18.7727C5.04206 18.6169 5.62006 18.5539 6.26829 18.7415C7.56474 19.1167 8.99053 20.3375 9.33732 21.9799L11.5555 32.4422C11.5698 32.5822 11.6128 32.7176 11.6818 32.8393C11.7508 32.961 11.8442 33.0664 11.9559 33.1484C12.0675 33.2305 12.1948 33.2874 12.3294 33.3154C12.464 33.3433 12.6029 33.3418 12.7369 33.3108C12.8709 33.2798 12.997 33.22 13.1068 33.1355C13.2167 33.0509 13.3078 32.9435 13.3741 32.8202C13.4405 32.697 13.4807 32.5607 13.4919 32.4204C13.5032 32.2802 13.4853 32.139 13.4395 32.0063L11.2517 21.5751C10.7243 19.0774 8.74151 17.4083 6.78486 16.8421C6.29569 16.7006 5.8161 16.6119 5.32631 16.6242ZM76.7041 16.6242C76.2143 16.6119 75.7043 16.7006 75.2152 16.8421C73.2585 17.4083 71.3061 19.0774 70.7787 21.5751L68.5909 32.0063C68.5451 32.139 68.5272 32.2802 68.5385 32.4204C68.5497 32.5607 68.5899 32.697 68.6562 32.8202C68.7226 32.9435 68.8137 33.0509 68.9236 33.1355C69.0334 33.22 69.1595 33.2798 69.2935 33.3108C69.4275 33.3418 69.5664 33.3433 69.701 33.3154C69.8356 33.2874 69.9629 33.2305 70.0745 33.1484C70.1862 33.0664 70.2795 32.961 70.3485 32.8393C70.4175 32.7176 70.4606 32.5822 70.4749 32.4422L72.6931 21.9799C73.0399 20.3375 74.4656 19.1167 75.7621 18.7415C76.4103 18.554 76.9883 18.617 77.3118 18.7727C77.6353 18.9285 77.8058 19.107 77.8588 19.738L80.0162 45.271C80.251 48.0678 79.935 51.4886 77.3726 54.1142L63.7898 68.0329C62.3733 69.4842 61.2606 71.1263 61.2374 73.3263L61.1462 79.8964C61.1442 80.0273 61.1674 80.1572 61.2144 80.2789C61.2614 80.4006 61.3314 80.5116 61.4203 80.6055C61.5092 80.6995 61.6152 80.7746 61.7324 80.8266C61.8497 80.8785 61.9757 80.9063 62.1034 80.9084C62.2311 80.9104 62.3579 80.8867 62.4767 80.8385C62.5954 80.7903 62.7037 80.7186 62.7954 80.6276C62.8871 80.5365 62.9604 80.4278 63.0111 80.3077C63.0618 80.1876 63.089 80.0584 63.091 79.9276L63.1821 73.3575C63.1985 71.8129 63.8788 70.7441 65.1572 69.4341L78.74 55.5154C81.8474 52.3314 82.1898 48.1715 81.9306 45.0842L79.8035 19.5511C79.7036 18.3608 79.0314 17.3997 78.1322 16.9667C77.6827 16.7502 77.1939 16.6364 76.7041 16.6242ZM12.8621 38.0471C10.5373 38.3657 9.02697 40.3377 8.42572 42.4064C7.8331 44.4453 7.99821 46.8 9.55002 48.1669C9.57261 48.1868 9.58762 48.2092 9.6108 48.2292L20.4891 59.3765C20.5748 59.4854 20.6818 59.5746 20.8033 59.6383C20.9248 59.702 21.058 59.7388 21.1943 59.7463C21.3306 59.7538 21.4669 59.7318 21.5943 59.6818C21.7217 59.6317 21.8375 59.5548 21.934 59.4559C22.0305 59.357 22.1056 59.2384 22.1544 59.1078C22.2033 58.9772 22.2247 58.8376 22.2174 58.6979C22.2101 58.5583 22.1742 58.4217 22.112 58.2973C22.0499 58.1728 21.9628 58.0631 21.8565 57.9753L10.9174 46.7657C10.8981 46.744 10.8778 46.7232 10.8566 46.7034C10.1388 46.1003 9.86417 44.5308 10.3097 42.998C10.7101 41.6201 11.6111 40.5493 12.771 40.1956L21.5223 49.1633C21.6941 49.334 21.9213 49.4338 22.1604 49.4435C29.0717 49.8038 33.8202 53.8062 34.1934 59.1586L35.7128 80.924C35.7227 81.0548 35.7578 81.1824 35.8158 81.2994C35.8739 81.4163 35.9539 81.5204 36.0513 81.6057C36.1486 81.691 36.2614 81.7558 36.3832 81.7965C36.505 81.8371 36.6334 81.8528 36.7611 81.8425C36.8888 81.8323 37.0133 81.7964 37.1274 81.7369C37.2416 81.6774 37.3432 81.5954 37.4264 81.4956C37.5096 81.3959 37.5729 81.2803 37.6125 81.1555C37.6522 81.0307 37.6675 80.8991 37.6575 80.7683L36.1382 59.0029C35.6946 52.642 30.0669 48.1001 22.677 47.5441L13.6826 38.3273C13.5762 38.2189 13.4468 38.1372 13.3044 38.0886C13.1621 38.04 13.0107 38.0257 12.8621 38.0471ZM68.8644 38.0471C68.6574 38.0778 68.4656 38.176 68.3174 38.3273L59.3534 47.5441C51.9635 48.1001 46.3054 52.642 45.8618 59.0029L44.3729 80.7683C44.3397 80.9084 44.3365 81.0543 44.3637 81.1958C44.3909 81.3373 44.4477 81.4711 44.5302 81.5879C44.6127 81.7047 44.719 81.8018 44.8417 81.8724C44.9644 81.943 45.1006 81.9855 45.2409 81.9969C45.3812 82.0083 45.5223 81.9884 45.6543 81.9385C45.7864 81.8886 45.9063 81.8099 46.0058 81.7079C46.1052 81.6059 46.1819 81.4829 46.2305 81.3476C46.2791 81.2123 46.2985 81.0677 46.2872 80.924L47.8066 59.1586C48.1798 53.8062 52.9587 49.8038 59.87 49.4435C60.1091 49.4338 60.3363 49.334 60.5081 49.1633L69.2594 40.1956C70.4193 40.5493 71.3203 41.6201 71.7207 42.998C72.1662 44.5308 71.8916 46.1003 71.1738 46.7034C71.1423 46.7224 71.1118 46.7432 71.0826 46.7657L60.1739 57.9753C60.0676 58.0631 59.9805 58.1728 59.9184 58.2973C59.8562 58.4217 59.8203 58.5583 59.813 58.6979C59.8057 58.8376 59.8271 58.9772 59.876 59.1078C59.9248 59.2384 59.9999 59.357 60.0964 59.4559C60.1929 59.5548 60.3086 59.6317 60.4361 59.6818C60.5635 59.7318 60.6998 59.7538 60.8361 59.7463C60.9724 59.7388 61.1056 59.702 61.2271 59.6383C61.3486 59.5746 61.4556 59.4854 61.5412 59.3765L72.3892 48.2292L72.4804 48.1669L72.45 48.1357C73.9856 46.7666 74.1647 44.4378 73.5743 42.4064C72.973 40.3377 71.4627 38.3657 69.1379 38.0471C69.0472 38.0339 68.9551 38.0339 68.8644 38.0471Z" fill="black"/>
<path d="M30.6216 15.9111H51.164C51.6539 15.9111 52.1132 15.6882 52.4242 15.2998C52.7353 14.9117 52.8594 14.406 52.774 13.9767L51.7941 4.98592C51.643 4.20376 50.9705 3.63623 50.1936 3.63623H31.5912C30.8143 3.63623 30.1419 4.20376 29.9812 5.0496L29.0203 13.9138C28.9261 14.4071 29.0503 14.9124 29.3613 15.3005C29.6724 15.6886 30.1316 15.9111 30.6216 15.9111ZM30.4974 14.1468L31.4583 5.28336C31.4708 5.21818 31.527 5.17061 31.5912 5.17061H50.1936C50.2578 5.17061 50.3141 5.21818 50.317 5.21968L51.2969 14.2108C51.3078 14.264 51.2874 14.303 51.2691 14.3258C51.2509 14.349 51.2173 14.3768 51.164 14.3768H30.6216C30.5683 14.3768 30.5347 14.3491 30.5164 14.3258C30.4974 14.3026 30.4777 14.2636 30.4974 14.1468Z" fill="black"/>
<path d="M18.8506 19.5638H19.5282V21.5822C19.5282 22.927 20.5942 24.0208 21.9049 24.0208H24.7978V34.0099C24.7978 35.3979 25.2786 36.6726 26.0778 37.6698V42.017C26.0778 43.0745 26.916 43.9349 27.947 43.9349H30.7055C31.7365 43.9349 32.5748 43.0745 32.5748 42.017V39.7866C32.6515 39.7866 37.5523 39.7878 37.2398 39.7877V44.2365C37.2398 45.5056 38.2459 46.538 39.4828 46.538H42.3013C43.5382 46.538 44.5443 45.5056 44.5443 44.2365V39.7877C44.6211 39.7877 49.5233 39.7865 49.2108 39.7866V42.017C49.2108 43.0745 50.049 43.9349 51.08 43.9349H53.8386C54.8695 43.9349 55.7078 43.0745 55.7078 42.017V37.6673C56.5056 36.6704 56.9855 35.3967 56.9855 34.0099V24.0208H59.8807C61.1913 24.0208 62.2573 22.927 62.2573 21.5822V19.5638H62.9349C63.7958 19.5638 64.4968 18.8446 64.4968 17.9609V13.8032C64.4968 12.9192 63.7958 12.2 62.9349 12.2H60.0836C59.2228 12.2 58.5218 12.9192 58.5218 13.8032V17.9609C58.5218 18.8446 59.2228 19.5638 60.0836 19.5638H60.762V21.5822C60.762 22.0808 60.367 22.4865 59.8807 22.4865H56.9856V17.5792C56.9856 17.5776 56.9863 17.5763 56.9863 17.5747V2.43864C56.9863 1.09383 55.9203 0 54.6096 0H27.1759C25.8653 0 24.7993 1.09383 24.7993 2.43864V17.5705C24.7993 17.5727 24.7978 17.5747 24.7978 17.577V22.4865H21.9049C21.4186 22.4865 21.0236 22.0808 21.0236 21.5822V19.5638H21.7012C22.5628 19.5638 23.2637 18.8446 23.2637 17.9609V13.8032C23.2637 12.9192 22.5628 12.2 21.7012 12.2H18.8506C17.989 12.2 17.2881 12.9192 17.2881 13.8032V17.9609C17.2881 18.8446 17.989 19.5638 18.8506 19.5638ZM60.0172 17.9609V13.8032C60.0172 13.7654 60.0471 13.7343 60.0836 13.7343H62.9349C62.9714 13.7343 63.0014 13.7654 63.0014 13.8032V17.9609C63.0014 17.9988 62.9714 18.0295 62.9349 18.0295H60.0836C60.0471 18.0295 60.0172 17.9988 60.0172 17.9609ZM40.8928 20.3228C45.6644 20.3228 50.783 19.6941 55.4902 18.5535V34.0099C55.4902 36.365 53.6017 38.2522 51.3487 38.2522H47.9606C47.5852 34.5905 44.5593 31.7267 40.8928 31.7267C37.2262 31.7267 34.1997 34.5905 33.8242 38.2522H30.4354C29.2975 38.2522 28.1691 37.7584 27.3811 36.8606C27.376 36.8548 27.369 36.8516 27.3637 36.846C26.7007 36.0936 26.2932 35.1008 26.2932 34.0099V23.2611C26.2932 23.2585 26.2946 23.2563 26.2946 23.2537C26.2946 23.251 26.2932 23.2488 26.2932 23.2462V18.5536C30.8428 19.6561 35.9455 20.3228 40.8928 20.3228ZM35.3291 38.2522C35.6962 35.4384 38.0513 33.2611 40.8928 33.2611C43.7335 33.2611 46.0887 35.4384 46.4557 38.2522C41.7018 38.2522 40.0045 38.2522 35.3291 38.2522ZM31.0794 42.017C31.0794 42.2249 30.9085 42.4006 30.7055 42.4006H27.947C27.744 42.4006 27.5731 42.2249 27.5731 42.017V38.9823C28.3882 39.4786 29.3691 39.7705 30.3661 39.783C30.3889 39.7833 30.4111 39.7877 30.4339 39.7877H31.0794V42.017ZM43.049 44.2365C43.049 44.6594 42.7138 45.0037 42.3013 45.0037H39.4828C39.0703 45.0037 38.7351 44.6594 38.7351 44.2365V39.7877H43.049V44.2365ZM54.2124 42.017C54.2124 42.2249 54.0415 42.4006 53.8386 42.4006H51.08C50.877 42.4006 50.7062 42.2249 50.7062 42.017V39.7877H51.3516C52.2826 39.7877 53.2691 39.5332 54.139 39.0226C54.1628 39.0086 54.1888 38.9989 54.2124 38.9846V42.017ZM27.1759 1.53436H54.6096C55.0959 1.53436 55.4909 1.94005 55.4909 2.43864V16.9695C46.1355 19.2907 36.3856 19.4735 26.2946 16.97V2.43864C26.2946 1.94005 26.6896 1.53436 27.1759 1.53436ZM18.7834 13.8032C18.7834 13.7654 18.8134 13.7343 18.8506 13.7343H21.7012C21.7384 13.7343 21.7684 13.7654 21.7684 13.8032V17.9609C21.7684 17.9988 21.7384 18.0295 21.7012 18.0295H18.8506C18.8134 18.0295 18.7834 17.9988 18.7834 17.9609V13.8032Z" fill="black"/>
<path d="M40.3787 30.135C42.5882 30.135 44.3851 28.2913 44.3851 26.0246C44.3851 23.7582 42.5882 21.9145 40.3787 21.9145C38.17 21.9145 36.3731 23.7582 36.3731 26.0246C36.3731 28.2913 38.17 30.135 40.3787 30.135ZM40.3787 23.4488C41.7631 23.4488 42.8898 24.6045 42.8898 26.0246C42.8898 27.445 41.7631 28.6007 40.3787 28.6007C38.9944 28.6007 37.8684 27.445 37.8684 26.0246C37.8684 24.6045 38.9944 23.4488 40.3787 23.4488Z" fill="black"/>
<path d="M28.9101 26.0583C29.3233 26.0583 29.6578 25.7148 29.6578 25.2911V22.9896C29.6578 22.5659 29.3233 22.2224 28.9101 22.2224C28.4968 22.2224 28.1624 22.5659 28.1624 22.9896V25.2911C28.1624 25.7148 28.4968 26.0583 28.9101 26.0583Z" fill="black"/>
<path d="M28.9101 31.8121C29.3233 31.8121 29.6578 31.4686 29.6578 31.0449V27.9762C29.6578 27.5526 29.3233 27.209 28.9101 27.209C28.4968 27.209 28.1624 27.5526 28.1624 27.9762V31.0449C28.1624 31.4686 28.4968 31.8121 28.9101 31.8121Z" fill="black"/>
<path d="M5.32631 16.6242C4.83652 16.6364 4.34771 16.7502 3.89814 16.9667C2.999 17.3997 2.32683 18.3608 2.22689 19.5511L0.0694497 45.0842C-0.189739 48.1715 0.152637 52.3314 3.26003 55.5154L16.8428 69.4341C18.1212 70.7441 18.8319 71.8129 18.8483 73.3575L18.909 79.9276C18.911 80.0584 18.9382 80.1876 18.9889 80.3077C19.0396 80.4278 19.1129 80.5365 19.2046 80.6276C19.2963 80.7186 19.4046 80.7903 19.5233 80.8385C19.6421 80.8867 19.7689 80.9104 19.8966 80.9084C20.0243 80.9063 20.1504 80.8785 20.2676 80.8266C20.3848 80.7746 20.4908 80.6995 20.5797 80.6055C20.6686 80.5116 20.7386 80.4006 20.7856 80.2789C20.8326 80.1572 20.8558 80.0273 20.8538 79.8964L20.793 73.3263C20.7697 71.1263 19.6571 69.4842 18.2405 68.0329L4.62742 54.1142C2.06501 51.4886 1.77938 48.0678 2.01418 45.271L4.17162 19.738C4.2246 19.107 4.3951 18.9285 4.71858 18.7727C5.04206 18.6169 5.62006 18.5539 6.26829 18.7415C7.56474 19.1167 8.99053 20.3375 9.33732 21.9799L11.5555 32.4422C11.5698 32.5822 11.6128 32.7176 11.6818 32.8393C11.7508 32.961 11.8442 33.0664 11.9559 33.1484C12.0675 33.2305 12.1948 33.2874 12.3294 33.3154C12.464 33.3433 12.6029 33.3418 12.7369 33.3108C12.8709 33.2798 12.997 33.22 13.1068 33.1355C13.2167 33.0509 13.3078 32.9435 13.3741 32.8202C13.4405 32.697 13.4807 32.5607 13.4919 32.4204C13.5032 32.2802 13.4853 32.139 13.4395 32.0063L11.2517 21.5751C10.7243 19.0774 8.74151 17.4083 6.78486 16.8421C6.29569 16.7006 5.8161 16.6119 5.32631 16.6242ZM76.7041 16.6242C76.2143 16.6119 75.7043 16.7006 75.2152 16.8421C73.2585 17.4083 71.3061 19.0774 70.7787 21.5751L68.5909 32.0063C68.5451 32.139 68.5272 32.2802 68.5385 32.4204C68.5497 32.5607 68.5899 32.697 68.6562 32.8202C68.7226 32.9435 68.8137 33.0509 68.9236 33.1355C69.0334 33.22 69.1595 33.2798 69.2935 33.3108C69.4275 33.3418 69.5664 33.3433 69.701 33.3154C69.8356 33.2874 69.9629 33.2305 70.0745 33.1484C70.1862 33.0664 70.2795 32.961 70.3485 32.8393C70.4175 32.7176 70.4606 32.5822 70.4749 32.4422L72.6931 21.9799C73.0399 20.3375 74.4656 19.1167 75.7621 18.7415C76.4103 18.554 76.9883 18.617 77.3118 18.7727C77.6353 18.9285 77.8058 19.107 77.8588 19.738L80.0162 45.271C80.251 48.0678 79.935 51.4886 77.3726 54.1142L63.7898 68.0329C62.3733 69.4842 61.2606 71.1263 61.2374 73.3263L61.1462 79.8964C61.1442 80.0273 61.1674 80.1572 61.2144 80.2789C61.2614 80.4006 61.3314 80.5116 61.4203 80.6055C61.5092 80.6995 61.6152 80.7746 61.7324 80.8266C61.8497 80.8785 61.9757 80.9063 62.1034 80.9084C62.2311 80.9104 62.3579 80.8867 62.4767 80.8385C62.5954 80.7903 62.7037 80.7186 62.7954 80.6276C62.8871 80.5365 62.9604 80.4278 63.0111 80.3077C63.0618 80.1876 63.089 80.0584 63.091 79.9276L63.1821 73.3575C63.1985 71.8129 63.8788 70.7441 65.1572 69.4341L78.74 55.5154C81.8474 52.3314 82.1898 48.1715 81.9306 45.0842L79.8035 19.5511C79.7036 18.3608 79.0314 17.3997 78.1322 16.9667C77.6827 16.7502 77.1939 16.6364 76.7041 16.6242ZM12.8621 38.0471C10.5373 38.3657 9.02697 40.3377 8.42572 42.4064C7.8331 44.4453 7.99821 46.8 9.55002 48.1669C9.57261 48.1868 9.58762 48.2092 9.6108 48.2292L20.4891 59.3765C20.5748 59.4854 20.6818 59.5746 20.8033 59.6383C20.9248 59.702 21.058 59.7388 21.1943 59.7463C21.3306 59.7538 21.4669 59.7318 21.5943 59.6818C21.7217 59.6317 21.8375 59.5548 21.934 59.4559C22.0305 59.357 22.1056 59.2384 22.1544 59.1078C22.2033 58.9772 22.2247 58.8376 22.2174 58.6979C22.2101 58.5583 22.1742 58.4217 22.112 58.2973C22.0499 58.1728 21.9628 58.0631 21.8565 57.9753L10.9174 46.7657C10.8981 46.744 10.8778 46.7232 10.8566 46.7034C10.1388 46.1003 9.86417 44.5308 10.3097 42.998C10.7101 41.6201 11.6111 40.5493 12.771 40.1956L21.5223 49.1633C21.6941 49.334 21.9213 49.4338 22.1604 49.4435C29.0717 49.8038 33.8202 53.8062 34.1934 59.1586L35.7128 80.924C35.7227 81.0548 35.7578 81.1824 35.8158 81.2994C35.8739 81.4163 35.9539 81.5204 36.0513 81.6057C36.1486 81.691 36.2614 81.7558 36.3832 81.7965C36.505 81.8371 36.6334 81.8528 36.7611 81.8425C36.8888 81.8323 37.0133 81.7964 37.1274 81.7369C37.2416 81.6774 37.3432 81.5954 37.4264 81.4956C37.5096 81.3959 37.5729 81.2803 37.6125 81.1555C37.6522 81.0307 37.6675 80.8991 37.6575 80.7683L36.1382 59.0029C35.6946 52.642 30.0669 48.1001 22.677 47.5441L13.6826 38.3273C13.5762 38.2189 13.4468 38.1372 13.3044 38.0886C13.1621 38.04 13.0107 38.0257 12.8621 38.0471ZM68.8644 38.0471C68.6574 38.0778 68.4656 38.176 68.3174 38.3273L59.3534 47.5441C51.9635 48.1001 46.3054 52.642 45.8618 59.0029L44.3729 80.7683C44.3397 80.9084 44.3365 81.0543 44.3637 81.1958C44.3909 81.3373 44.4477 81.4711 44.5302 81.5879C44.6127 81.7047 44.719 81.8018 44.8417 81.8724C44.9644 81.943 45.1006 81.9855 45.2409 81.9969C45.3812 82.0083 45.5223 81.9884 45.6543 81.9385C45.7864 81.8886 45.9063 81.8099 46.0058 81.7079C46.1052 81.6059 46.1819 81.4829 46.2305 81.3476C46.2791 81.2123 46.2985 81.0677 46.2872 80.924L47.8066 59.1586C48.1798 53.8062 52.9587 49.8038 59.87 49.4435C60.1091 49.4338 60.3363 49.334 60.5081 49.1633L69.2594 40.1956C70.4193 40.5493 71.3203 41.6201 71.7207 42.998C72.1662 44.5308 71.8916 46.1003 71.1738 46.7034C71.1423 46.7224 71.1118 46.7432 71.0826 46.7657L60.1739 57.9753C60.0676 58.0631 59.9805 58.1728 59.9184 58.2973C59.8562 58.4217 59.8203 58.5583 59.813 58.6979C59.8057 58.8376 59.8271 58.9772 59.876 59.1078C59.9248 59.2384 59.9999 59.357 60.0964 59.4559C60.1929 59.5548 60.3086 59.6317 60.4361 59.6818C60.5635 59.7318 60.6998 59.7538 60.8361 59.7463C60.9724 59.7388 61.1056 59.702 61.2271 59.6383C61.3486 59.5746 61.4556 59.4854 61.5412 59.3765L72.3892 48.2292L72.4804 48.1669L72.45 48.1357C73.9856 46.7666 74.1647 44.4378 73.5743 42.4064C72.973 40.3377 71.4627 38.3657 69.1379 38.0471C69.0472 38.0339 68.9551 38.0339 68.8644 38.0471Z" stroke="white" mask="url(#path-1-inside-1)"/>
<path d="M30.6216 15.9111H51.164C51.6539 15.9111 52.1132 15.6882 52.4242 15.2998C52.7353 14.9117 52.8594 14.406 52.774 13.9767L51.7941 4.98592C51.643 4.20376 50.9705 3.63623 50.1936 3.63623H31.5912C30.8143 3.63623 30.1419 4.20376 29.9812 5.0496L29.0203 13.9138C28.9261 14.4071 29.0503 14.9124 29.3613 15.3005C29.6724 15.6886 30.1316 15.9111 30.6216 15.9111ZM30.4974 14.1468L31.4583 5.28336C31.4708 5.21818 31.527 5.17061 31.5912 5.17061H50.1936C50.2578 5.17061 50.3141 5.21818 50.317 5.21968L51.2969 14.2108C51.3078 14.264 51.2874 14.303 51.2691 14.3258C51.2509 14.349 51.2173 14.3768 51.164 14.3768H30.6216C30.5683 14.3768 30.5347 14.3491 30.5164 14.3258C30.4974 14.3026 30.4777 14.2636 30.4974 14.1468Z" stroke="white" mask="url(#path-1-inside-1)"/>
<path d="M18.8506 19.5638H19.5282V21.5822C19.5282 22.927 20.5942 24.0208 21.9049 24.0208H24.7978V34.0099C24.7978 35.3979 25.2786 36.6726 26.0778 37.6698V42.017C26.0778 43.0745 26.916 43.9349 27.947 43.9349H30.7055C31.7365 43.9349 32.5748 43.0745 32.5748 42.017V39.7866C32.6515 39.7866 37.5523 39.7878 37.2398 39.7877V44.2365C37.2398 45.5056 38.2459 46.538 39.4828 46.538H42.3013C43.5382 46.538 44.5443 45.5056 44.5443 44.2365V39.7877C44.6211 39.7877 49.5233 39.7865 49.2108 39.7866V42.017C49.2108 43.0745 50.049 43.9349 51.08 43.9349H53.8386C54.8695 43.9349 55.7078 43.0745 55.7078 42.017V37.6673C56.5056 36.6704 56.9855 35.3967 56.9855 34.0099V24.0208H59.8807C61.1913 24.0208 62.2573 22.927 62.2573 21.5822V19.5638H62.9349C63.7958 19.5638 64.4968 18.8446 64.4968 17.9609V13.8032C64.4968 12.9192 63.7958 12.2 62.9349 12.2H60.0836C59.2228 12.2 58.5218 12.9192 58.5218 13.8032V17.9609C58.5218 18.8446 59.2228 19.5638 60.0836 19.5638H60.762V21.5822C60.762 22.0808 60.367 22.4865 59.8807 22.4865H56.9856V17.5792C56.9856 17.5776 56.9863 17.5763 56.9863 17.5747V2.43864C56.9863 1.09383 55.9203 0 54.6096 0H27.1759C25.8653 0 24.7993 1.09383 24.7993 2.43864V17.5705C24.7993 17.5727 24.7978 17.5747 24.7978 17.577V22.4865H21.9049C21.4186 22.4865 21.0236 22.0808 21.0236 21.5822V19.5638H21.7012C22.5628 19.5638 23.2637 18.8446 23.2637 17.9609V13.8032C23.2637 12.9192 22.5628 12.2 21.7012 12.2H18.8506C17.989 12.2 17.2881 12.9192 17.2881 13.8032V17.9609C17.2881 18.8446 17.989 19.5638 18.8506 19.5638ZM60.0172 17.9609V13.8032C60.0172 13.7654 60.0471 13.7343 60.0836 13.7343H62.9349C62.9714 13.7343 63.0014 13.7654 63.0014 13.8032V17.9609C63.0014 17.9988 62.9714 18.0295 62.9349 18.0295H60.0836C60.0471 18.0295 60.0172 17.9988 60.0172 17.9609ZM40.8928 20.3228C45.6644 20.3228 50.783 19.6941 55.4902 18.5535V34.0099C55.4902 36.365 53.6017 38.2522 51.3487 38.2522H47.9606C47.5852 34.5905 44.5593 31.7267 40.8928 31.7267C37.2262 31.7267 34.1997 34.5905 33.8242 38.2522H30.4354C29.2975 38.2522 28.1691 37.7584 27.3811 36.8606C27.376 36.8548 27.369 36.8516 27.3637 36.846C26.7007 36.0936 26.2932 35.1008 26.2932 34.0099V23.2611C26.2932 23.2585 26.2946 23.2563 26.2946 23.2537C26.2946 23.251 26.2932 23.2488 26.2932 23.2462V18.5536C30.8428 19.6561 35.9455 20.3228 40.8928 20.3228ZM35.3291 38.2522C35.6962 35.4384 38.0513 33.2611 40.8928 33.2611C43.7335 33.2611 46.0887 35.4384 46.4557 38.2522C41.7018 38.2522 40.0045 38.2522 35.3291 38.2522ZM31.0794 42.017C31.0794 42.2249 30.9085 42.4006 30.7055 42.4006H27.947C27.744 42.4006 27.5731 42.2249 27.5731 42.017V38.9823C28.3882 39.4786 29.3691 39.7705 30.3661 39.783C30.3889 39.7833 30.4111 39.7877 30.4339 39.7877H31.0794V42.017ZM43.049 44.2365C43.049 44.6594 42.7138 45.0037 42.3013 45.0037H39.4828C39.0703 45.0037 38.7351 44.6594 38.7351 44.2365V39.7877H43.049V44.2365ZM54.2124 42.017C54.2124 42.2249 54.0415 42.4006 53.8386 42.4006H51.08C50.877 42.4006 50.7062 42.2249 50.7062 42.017V39.7877H51.3516C52.2826 39.7877 53.2691 39.5332 54.139 39.0226C54.1628 39.0086 54.1888 38.9989 54.2124 38.9846V42.017ZM27.1759 1.53436H54.6096C55.0959 1.53436 55.4909 1.94005 55.4909 2.43864V16.9695C46.1355 19.2907 36.3856 19.4735 26.2946 16.97V2.43864C26.2946 1.94005 26.6896 1.53436 27.1759 1.53436ZM18.7834 13.8032C18.7834 13.7654 18.8134 13.7343 18.8506 13.7343H21.7012C21.7384 13.7343 21.7684 13.7654 21.7684 13.8032V17.9609C21.7684 17.9988 21.7384 18.0295 21.7012 18.0295H18.8506C18.8134 18.0295 18.7834 17.9988 18.7834 17.9609V13.8032Z" stroke="white" mask="url(#path-1-inside-1)"/>
<path d="M40.3787 30.135C42.5882 30.135 44.3851 28.2913 44.3851 26.0246C44.3851 23.7582 42.5882 21.9145 40.3787 21.9145C38.17 21.9145 36.3731 23.7582 36.3731 26.0246C36.3731 28.2913 38.17 30.135 40.3787 30.135ZM40.3787 23.4488C41.7631 23.4488 42.8898 24.6045 42.8898 26.0246C42.8898 27.445 41.7631 28.6007 40.3787 28.6007C38.9944 28.6007 37.8684 27.445 37.8684 26.0246C37.8684 24.6045 38.9944 23.4488 40.3787 23.4488Z" stroke="white" mask="url(#path-1-inside-1)"/>
<path d="M28.9101 26.0583C29.3233 26.0583 29.6578 25.7148 29.6578 25.2911V22.9896C29.6578 22.5659 29.3233 22.2224 28.9101 22.2224C28.4968 22.2224 28.1624 22.5659 28.1624 22.9896V25.2911C28.1624 25.7148 28.4968 26.0583 28.9101 26.0583Z" stroke="white" mask="url(#path-1-inside-1)"/>
<path d="M28.9101 31.8121C29.3233 31.8121 29.6578 31.4686 29.6578 31.0449V27.9762C29.6578 27.5526 29.3233 27.209 28.9101 27.209C28.4968 27.209 28.1624 27.5526 28.1624 27.9762V31.0449C28.1624 31.4686 28.4968 31.8121 28.9101 31.8121Z" stroke="white" mask="url(#path-1-inside-1)"/>
</svg>
