<svg width="128" height="66" viewBox="0 0 128 66" fill="none" xmlns="http://www.w3.org/2000/svg">
<path d="M2.41947 6.902H3.01347V16.46H8.97147V17H2.41947V6.902ZM20.6397 16.46V17H13.6737V6.902H20.4237V7.442H14.2677V11.618H19.7757V12.14H14.2677V16.46H20.6397ZM32.2235 14.066H26.1935L24.8255 17H24.1955L28.9115 6.902H29.5055L34.2395 17H33.5915L32.2235 14.066ZM31.9895 13.544L29.2175 7.568L26.4275 13.544H31.9895ZM46.0703 17L43.5863 13.58C43.1303 13.628 42.7763 13.652 42.5243 13.652H39.5183V17H38.9243V6.902H42.5243C43.7963 6.902 44.7923 7.202 45.5123 7.802C46.2443 8.39 46.6103 9.212 46.6103 10.268C46.6103 11.072 46.3943 11.75 45.9623 12.302C45.5423 12.842 44.9483 13.22 44.1803 13.436L46.7543 17H46.0703ZM42.5243 13.112C43.6523 13.112 44.5103 12.866 45.0983 12.374C45.6983 11.882 45.9983 11.18 45.9983 10.268C45.9983 9.368 45.6983 8.672 45.0983 8.18C44.5103 7.688 43.6523 7.442 42.5243 7.442H39.5183V13.112H42.5243ZM60.6545 6.902V17H60.1685L53.0225 7.982V17H52.4285V6.902H52.9325L60.0605 15.938V6.902H60.6545ZM84.0237 17V8.072L79.6137 15.632H79.3077L74.8977 8.126V17H74.3217V6.902H74.8257L79.4877 14.858L84.0957 6.902H84.5997L84.6177 17H84.0237ZM95.4113 17.072C94.4153 17.072 93.5153 16.85 92.7113 16.406C91.9073 15.962 91.2713 15.35 90.8033 14.57C90.3473 13.778 90.1193 12.902 90.1193 11.942C90.1193 10.982 90.3473 10.118 90.8033 9.35C91.2713 8.57 91.9073 7.958 92.7113 7.514C93.5153 7.07 94.4153 6.848 95.4113 6.848C96.4073 6.848 97.3073 7.07 98.1113 7.514C98.9153 7.958 99.5453 8.57 100.001 9.35C100.469 10.118 100.703 10.982 100.703 11.942C100.703 12.902 100.469 13.778 100.001 14.57C99.5453 15.35 98.9153 15.962 98.1113 16.406C97.3073 16.85 96.4073 17.072 95.4113 17.072ZM95.4113 16.532C96.2993 16.532 97.0973 16.334 97.8053 15.938C98.5253 15.542 99.0893 14.996 99.4973 14.3C99.9053 13.604 100.109 12.824 100.109 11.96C100.109 11.096 99.9053 10.316 99.4973 9.62C99.0893 8.924 98.5253 8.378 97.8053 7.982C97.0973 7.586 96.2993 7.388 95.4113 7.388C94.5353 7.388 93.7373 7.586 93.0173 7.982C92.3093 8.378 91.7453 8.924 91.3253 9.62C90.9173 10.316 90.7133 11.096 90.7133 11.96C90.7133 12.824 90.9173 13.604 91.3253 14.3C91.7453 14.996 92.3093 15.542 93.0173 15.938C93.7373 16.334 94.5353 16.532 95.4113 16.532ZM113.38 17L110.896 13.58C110.44 13.628 110.086 13.652 109.834 13.652H106.828V17H106.234V6.902H109.834C111.106 6.902 112.102 7.202 112.822 7.802C113.554 8.39 113.92 9.212 113.92 10.268C113.92 11.072 113.704 11.75 113.272 12.302C112.852 12.842 112.258 13.22 111.49 13.436L114.064 17H113.38ZM109.834 13.112C110.962 13.112 111.82 12.866 112.408 12.374C113.008 11.882 113.308 11.18 113.308 10.268C113.308 9.368 113.008 8.672 112.408 8.18C111.82 7.688 110.962 7.442 109.834 7.442H106.828V13.112H109.834ZM126.705 16.46V17H119.739V6.902H126.489V7.442H120.333V11.618H125.841V12.14H120.333V16.46H126.705Z" fill="black"/>
<path d="M37 41.7858L66.6154 65.0001L92 41.7858" stroke="black" stroke-width="0.5"/>
</svg>
