<svg width="1280" height="1024" viewBox="0 0 1280 1024" fill="none" xmlns="http://www.w3.org/2000/svg">
<path d="M1118.08 431.19C1049.33 301.26 907.16 207.48 891.14 263.59C880.14 302.22 973.7 320.25 1027.52 424.8C1050.83 470.05 1054.1 510.06 1052.79 528.42C1050.21 564.54 1023.43 593.99 987.21 593.99C950.99 593.99 913.77 566.62 913.77 528.42C913.77 480.42 954.04 462.84 987.21 462.84C1020.21 462.84 1025.64 411.54 976.07 405.78C885.57 395.29 853.43 479.24 818.9 437C804.1 418.9 775.39 364.48 734.05 365.21C688.15 366.03 638.75 452.83 613.18 452.83C587.61 452.83 585 365 547.59 364.24C512.8 363.57 458.35 452.82 427.1 452.82C395.85 452.82 390.8 365 357.31 364.24C316.2 363.35 248.13 452.82 222.56 452.82C196.99 452.82 225.47 364.12 180.56 364.76C149.26 365.2 126.39 441.25 120.71 497.12C115.03 552.99 108.48 670.42 156.57 670.42C204.66 670.42 289.26 470.88 330.57 482.66C367.23 493.11 309.86 666.36 368 669.75C419.52 672.75 493.2 452.42 533 484.75C560.42 507 513.1 668 569.7 670.42C619.92 672.54 688.52 452.15 734.92 452.15C781.32 452.15 801.76 663.2 850.69 670.42C876.98 674.31 887.33 631.33 901.53 631.33C915.73 631.33 930.37 673.01 997.63 667.57C1058.05 662.69 1073 622 1091 622C1109 622 1096.54 672.14 1131.22 670.44C1173.02 668.44 1173.41 535.74 1118.09 431.21" fill="#EB0045"/>
<path d="M722.4 598.5C729.71 594.64 727.29 577.67 731.4 571.81C750.76 544.81 784.45 587.81 772.78 647.5C764.78 688.5 712.89 658.27 689.02 640.44C668.66 625.24 662.13 595.77 684.73 593.04C706.66 590.37 714.46 602.65 722.37 598.5" fill="#EC1848"/>
<path d="M127.21 788.19C127.21 792.5 126.07 796.03 124.67 796.03H119.56C118.15 796.03 116.99 792.5 116.99 788.19V723.29C116.99 718.97 118.99 715.46 121.48 715.46H130.48C132.95 715.46 135.74 718.89 136.68 723.1L147.85 772.74C148.79 776.94 149.56 780.38 149.55 780.38C149.54 780.38 150.29 776.94 151.21 772.73L162 723.1C162.92 718.9 165.68 715.46 168.15 715.46H177.15C179.62 715.46 181.64 718.97 181.64 723.29V788.19C181.64 792.5 180.5 796.03 179.09 796.03H173.98C172.57 796.03 171.42 792.5 171.42 788.19V726.07C171.42 726.07 170.6 729.5 169.62 733.69L156.73 788.41C155.73 792.6 153.73 796.03 152.16 796.03H146.63C145.1 796.03 143.04 792.6 142.05 788.41L129.05 733.46C128.05 729.27 127.26 725.85 127.27 725.85V733.67L127.21 788.19ZM222.07 723.09C223.07 718.88 225.46 715.46 227.47 715.46H234.81C236.81 715.46 239.28 718.88 240.25 723.09L255.19 788.4C256.19 792.59 255.63 796.03 254.02 796.03H248.16C246.55 796.03 244.52 792.57 243.66 788.36L243.07 785.43C242.561 783.3 241.366 781.395 239.67 780.01C237.974 778.624 235.869 777.834 233.68 777.76H227.76C225.568 777.837 223.46 778.627 221.757 780.009C220.053 781.391 218.847 783.291 218.32 785.42L217.7 788.36C216.82 792.58 214.89 796.03 213.42 796.03H208.05C206.58 796.03 206.16 792.59 207.12 788.4L222.07 723.09ZM223.42 761C223.176 761.931 223.156 762.907 223.36 763.847C223.565 764.788 223.988 765.667 224.596 766.414C225.204 767.16 225.979 767.752 226.859 768.143C227.739 768.533 228.699 768.71 229.66 768.66H232C232.96 768.709 233.919 768.531 234.797 768.14C235.675 767.749 236.449 767.156 237.055 766.409C237.661 765.663 238.083 764.784 238.285 763.844C238.487 762.904 238.465 761.93 238.22 761L232.39 733C231.51 728.8 230.8 725.34 230.81 725.34C230.82 725.34 230.13 728.8 229.25 733.01L223.42 761ZM292.28 788.19C292.28 792.5 291.04 796.03 289.54 796.03H284C282.48 796.03 281.24 792.5 281.24 788.19V723.29C281.24 718.97 282.47 715.46 283.98 715.46H289.49C291.01 715.46 292.26 718.97 292.26 723.29V744.74C292.26 749.05 294.13 749.59 296.42 745.94L311.37 722.09C313.66 718.44 316.89 715.46 318.55 715.46H324.61C326.29 715.46 325.71 718.39 323.33 721.98L308 745.07C306.818 747.09 306.144 749.367 306.038 751.705C305.932 754.043 306.396 756.371 307.39 758.49L324 789.14C326.05 792.92 326.25 796.03 324.46 796.03H317.93C316.15 796.03 313.07 792.9 311.09 789.03L295.87 759.44C293.87 755.61 292.3 752.44 292.3 752.44V760.27L292.28 788.19ZM358.17 796C356.094 795.992 354.106 795.163 352.639 793.694C351.172 792.226 350.345 790.236 350.34 788.16V723.26C350.345 721.185 351.172 719.196 352.639 717.729C354.106 716.262 356.095 715.435 358.17 715.43H378.6C382.91 715.43 386.43 716.43 386.43 717.69V722.21C386.43 723.47 382.91 724.51 378.6 724.51H369.19C367.117 724.515 365.13 725.341 363.663 726.806C362.196 728.271 361.368 730.257 361.36 732.33V742.2C361.368 744.274 362.195 746.261 363.662 747.728C365.129 749.195 367.116 750.022 369.19 750.03H377.12C381.43 750.03 384.95 751.03 384.95 752.28V756.82C384.95 758.08 381.43 759.11 377.12 759.11H369.19C367.117 759.115 365.13 759.941 363.663 761.406C362.196 762.871 361.368 764.857 361.36 766.93V779.09C361.365 781.165 362.192 783.154 363.659 784.621C365.126 786.088 367.115 786.915 369.19 786.92H379.35C383.65 786.92 387.17 787.92 387.17 789.17V793.71C387.17 794.97 383.65 796 379.35 796H358.17ZM462.9 723.09C463.9 718.88 466.29 715.46 468.3 715.46H475.63C477.63 715.46 480.1 718.88 481.07 723.09L496 788.4C497 792.59 496.43 796.03 494.83 796.03H489C487.38 796.03 485.35 792.57 484.49 788.36L483.91 785.43C483.4 783.298 482.204 781.392 480.506 780.007C478.808 778.621 476.701 777.831 474.51 777.76H468.59C466.399 777.839 464.294 778.63 462.593 780.012C460.892 781.394 459.686 783.292 459.16 785.42L458.54 788.36C457.66 792.58 455.73 796.03 454.25 796.03H448.89C447.42 796.03 446.99 792.59 447.96 788.4L462.9 723.09ZM464.25 761C464.006 761.931 463.986 762.907 464.19 763.847C464.395 764.788 464.818 765.667 465.426 766.414C466.034 767.16 466.809 767.752 467.689 768.143C468.569 768.533 469.529 768.71 470.49 768.66H472.77C473.731 768.711 474.691 768.534 475.57 768.143C476.45 767.753 477.225 767.16 477.832 766.414C478.44 765.667 478.862 764.788 479.065 763.847C479.268 762.906 479.245 761.931 479 761L473.17 733C472.29 728.8 471.59 725.34 471.6 725.34C471.61 725.34 470.91 728.8 470.03 733.01L464.25 761ZM559.08 723.29C559.08 718.98 560.3 715.46 561.81 715.46H571.63C575.53 715.46 582.21 715.86 586.49 716.37C586.49 716.37 594.71 717.37 598.84 721.05C602.97 724.73 605.04 730.85 605.04 739.27V762.84C605.04 767.15 604.68 774.18 604.24 778.46C604.24 778.46 603.46 786.08 600.3 790.06C597.14 794.04 591.99 796.06 584.82 796.06H561.82C560.31 796.06 559.09 792.54 559.09 788.22L559.08 723.29ZM570.09 779.15C570.09 783.46 572.61 786.98 575.68 786.98C580.139 786.852 584.586 786.465 589 785.82C589 785.82 589.32 785.77 591.19 783.41C593.06 781.05 593.99 776.86 593.99 770.85V747.27C593.99 742.96 593.61 735.94 593.15 731.65C592.808 730.183 592.039 728.851 590.94 727.82C588.887 725.627 585.257 724.533 580.05 724.54H577.89C575.817 724.545 573.83 725.371 572.363 726.836C570.896 728.301 570.068 730.287 570.06 732.36L570.09 779.15ZM630.67 723.29C630.67 718.98 631.9 715.46 633.41 715.46H638.92C640.44 715.46 641.69 718.98 641.69 723.29V788.19C641.69 792.51 640.46 796.03 638.95 796.03H633.44C631.91 796.03 630.67 792.51 630.67 788.19V723.29ZM671.29 796C669.76 796 668.52 792.47 668.52 788.16V723.26C668.523 721.184 669.348 719.194 670.816 717.726C672.284 716.258 674.274 715.433 676.35 715.43H695.86C700.17 715.43 703.69 716.43 703.69 717.69V722.21C703.69 723.47 700.17 724.51 695.86 724.51H687.37C685.297 724.515 683.31 725.341 681.843 726.806C680.376 728.271 679.548 730.257 679.54 732.33V742.2C679.548 744.274 680.375 746.261 681.842 747.728C683.309 749.195 685.296 750.022 687.37 750.03H694.78C699.08 750.03 702.6 751.03 702.6 752.28V756.82C702.6 758.08 699.08 759.11 694.78 759.11H687.37C685.297 759.115 683.31 759.941 681.843 761.406C680.376 762.871 679.548 764.857 679.54 766.93V788.16C679.54 792.47 678.31 796 676.8 796H671.29ZM730.43 796C728.91 796 727.67 792.47 727.67 788.16V723.26C727.673 721.184 728.498 719.194 729.966 717.726C731.434 716.258 733.424 715.433 735.5 715.43H755C759.3 715.43 762.83 716.43 762.83 717.69V722.21C762.83 723.47 759.3 724.51 755 724.51H746.51C744.437 724.515 742.45 725.341 740.983 726.806C739.516 728.271 738.688 730.257 738.68 732.33V742.2C738.685 744.275 739.512 746.264 740.979 747.731C742.446 749.198 744.435 750.025 746.51 750.03H753.91C758.23 750.03 761.74 751.03 761.74 752.28V756.82C761.74 758.08 758.23 759.11 753.91 759.11H746.51C744.437 759.115 742.45 759.941 740.983 761.406C739.516 762.871 738.688 764.857 738.68 766.93V788.16C738.68 792.47 737.44 796 735.94 796H730.43ZM794.53 796C792.454 795.992 790.466 795.163 788.999 793.694C787.532 792.226 786.705 790.236 786.7 788.16V723.26C786.703 721.184 787.528 719.194 788.996 717.726C790.464 716.258 792.454 715.433 794.53 715.43H815C819.31 715.43 822.82 716.43 822.82 717.69V722.21C822.82 723.47 819.31 724.51 815 724.51H805.59C803.517 724.515 801.53 725.341 800.063 726.806C798.596 728.271 797.768 730.257 797.76 732.33V742.2C797.765 744.275 798.592 746.264 800.059 747.731C801.526 749.198 803.515 750.025 805.59 750.03H813.51C817.82 750.03 821.34 751.03 821.34 752.28V756.82C821.34 758.08 817.82 759.11 813.51 759.11H805.59C803.517 759.115 801.53 759.941 800.063 761.406C798.596 762.871 797.768 764.857 797.76 766.93V779.09C797.765 781.165 798.592 783.154 800.059 784.621C801.526 786.088 803.515 786.915 805.59 786.92H815.7C820.01 786.92 823.53 787.92 823.53 789.17V793.71C823.53 794.97 820.01 796 815.7 796H794.53ZM848.08 723.29C848.08 718.98 849.32 715.46 850.84 715.46H865.78C870.987 715.523 876.185 715.887 881.35 716.55C884.014 717.086 886.454 718.414 888.35 720.36C891.55 723.64 893.15 728.707 893.15 735.56C893.15 735.11 892.65 738.24 892.04 742.56C891.489 745.671 889.979 748.531 887.72 750.74C885.327 752.947 881.867 754.413 877.34 755.14C882.2 755.47 885.59 756.62 887.5 758.56C889.767 760.853 890.96 765.333 891.08 772C891.147 776.833 891.373 780.887 891.76 784.16C891.89 785.16 892.23 787.79 892.53 789.93L892.82 791.41C893.112 792.951 893.482 794.477 893.93 795.98H885.26C883.67 795.98 881.95 793.98 881.45 791.58L881.2 790.21C880.95 788.85 880.78 787.72 880.71 786.84C880.64 785.96 880.3 781.95 880 778.07L879.93 774C879.85 768.787 878.87 765.073 876.99 762.86C875.11 760.647 872.02 759.543 867.72 759.55H859.13V788.2C859.13 792.51 857.88 796.03 856.37 796.03H850.86C849.35 796.03 848.11 792.51 848.11 788.2L848.08 723.29ZM859.11 742.63C859.11 746.93 861.11 750.46 863.48 750.46C865.85 750.46 871.37 750.06 875.65 749.58C875.65 749.58 877.16 749.41 879.17 747.29C881.18 745.17 882.17 741.19 882.17 735.29C882.17 735.72 881.71 732.74 881.17 728.63L879.17 726.98C877.117 725.32 873.363 724.493 867.91 724.5H866.99C864.915 724.505 862.926 725.332 861.459 726.799C859.992 728.266 859.165 730.255 859.16 732.33L859.11 742.63ZM925.73 796C923.654 795.992 921.666 795.163 920.199 793.694C918.732 792.226 917.905 790.236 917.9 788.16V723.26C917.903 721.184 918.728 719.194 920.196 717.726C921.664 716.258 923.654 715.433 925.73 715.43H946.16C950.47 715.43 953.99 716.43 953.99 717.69V722.21C953.99 723.47 950.47 724.51 946.16 724.51H936.75C934.677 724.515 932.69 725.341 931.223 726.806C929.756 728.271 928.928 730.257 928.92 732.33V742.2C928.925 744.275 929.752 746.264 931.219 747.731C932.686 749.198 934.675 750.025 936.75 750.03H944.67C948.98 750.03 952.5 751.03 952.5 752.28V756.82C952.5 758.08 948.98 759.11 944.67 759.11H936.75C934.677 759.115 932.69 759.941 931.223 761.406C929.756 762.871 928.928 764.857 928.92 766.93V779.09C928.925 781.165 929.752 783.154 931.219 784.621C932.686 786.088 934.675 786.915 936.75 786.92H946.9C951.21 786.92 954.73 787.92 954.73 789.17V793.71C954.73 794.97 951.21 796 946.9 796H925.73ZM989.33 788.19C989.33 792.5 988.15 796.03 986.71 796.03H981.49C980.06 796.03 978.88 792.5 978.88 788.19V723.29C978.88 718.97 980.82 715.46 983.2 715.46H991.88C994.28 715.46 997.24 718.82 998.48 722.95L1014.84 777.51C1016.07 781.63 1017.08 781.51 1017.08 777.18V723.29C1017.08 718.97 1018.22 715.46 1019.62 715.46H1024.73C1026.15 715.46 1027.3 718.97 1027.3 723.29V788.19C1027.3 792.5 1025.36 796.03 1022.99 796.03H1014.34C1011.95 796.03 1008.99 792.65 1007.76 788.53L991.57 734.33C990.34 730.2 989.33 730.33 989.33 734.65V788.19ZM1091.61 769.81C1094.61 769.81 1097.13 770.36 1097.13 771.01C1097.13 771.66 1096.83 775.73 1096.47 780.01C1096.47 780.01 1095.87 787.28 1092.56 791.17C1089.25 795.06 1083.74 796.99 1076.05 796.99C1068.36 796.99 1062.87 795.19 1059.24 791.59C1055.61 787.99 1053.79 782.44 1053.79 774.95V746.95C1053.79 742.64 1054.2 735.61 1054.71 731.33C1054.71 731.33 1055.56 724.17 1059.12 720.33C1062.68 716.49 1068.48 714.53 1076.51 714.53C1084.12 714.53 1089.56 716.28 1092.84 719.78C1095.78 722.827 1097.23 727.493 1097.19 733.78C1097.19 735.26 1097.13 736.99 1097.13 737.66C1097.13 738.33 1094.65 738.86 1091.61 738.86C1088.57 738.86 1086.11 738.32 1086.11 737.66C1086.11 737 1085.92 732.94 1085.68 728.66C1085.68 728.66 1085.68 728.24 1084.31 726.4C1082.94 724.56 1080.4 723.63 1076.62 723.63C1072.44 723.63 1069.44 724.697 1067.62 726.83C1065.8 728.963 1064.88 732.447 1064.85 737.28V765.28C1064.85 769.59 1065.14 776.62 1065.49 780.92C1065.72 782.325 1066.3 783.648 1067.19 784.76C1068.74 786.89 1071.6 787.96 1075.75 787.96C1079.52 787.96 1082.21 786.73 1083.84 784.27C1085.47 781.81 1086.21 777.81 1086.15 772.27C1086.15 770.96 1088.62 769.87 1091.65 769.87L1091.61 769.81ZM1131.15 796C1129.08 795.992 1127.09 795.163 1125.62 793.694C1124.16 792.225 1123.33 790.235 1123.33 788.16V723.26C1123.33 721.186 1124.16 719.197 1125.62 717.73C1127.09 716.262 1129.08 715.435 1131.15 715.43H1151.59C1155.9 715.43 1159.42 716.43 1159.42 717.69V722.21C1159.42 723.47 1155.9 724.51 1151.59 724.51H1142.18C1140.11 724.515 1138.12 725.341 1136.65 726.806C1135.19 728.271 1134.36 730.257 1134.35 732.33V742.2C1134.36 744.275 1135.18 746.264 1136.65 747.731C1138.12 749.198 1140.11 750.025 1142.18 750.03H1150.1C1154.41 750.03 1157.93 751.03 1157.93 752.28V756.82C1157.93 758.08 1154.41 759.11 1150.1 759.11H1142.18C1140.11 759.115 1138.12 759.941 1136.65 761.406C1135.19 762.871 1134.36 764.857 1134.35 766.93V779.09C1134.36 781.165 1135.18 783.154 1136.65 784.621C1138.12 786.088 1140.11 786.915 1142.18 786.92H1152.34C1156.64 786.92 1160.16 787.92 1160.16 789.17V793.71C1160.16 794.97 1156.64 796 1152.34 796" fill="#252525"/>
</svg>
