<svg height="512pt" viewBox="-6 0 512 512" width="512pt" xmlns="http://www.w3.org/2000/svg"><path d="m500.757812 261.621094c0 138.28125-112.097656 250.378906-250.378906 250.378906s-250.378906-112.097656-250.378906-250.378906 112.097656-250.378906 250.378906-250.378906 250.378906 112.097656 250.378906 250.378906zm0 0" fill="#fdb44c"/><path d="m332.808594 15.328125v26.089844c0 11.289062-9.148438 20.441406-20.4375 20.441406h-64.101563v-46.53125c0-8.464844 6.863281-15.328125 15.332031-15.328125h53.878907c8.464843 0 15.328125 6.863281 15.328125 15.328125zm0 0" fill="#fd5757"/><path d="m128.433594 480.320312c-17.257813-9.648437-33.265625-21.265624-47.699219-34.570312v-381.558594c0-1.175781 11.242187-14.117187 11.242187-14.117187 0-8.464844 6.863282-15.328125 15.328126-15.328125h316.808593c8.464844 0 15.328125 6.863281 15.328125 15.328125v375.695312c-18.972656 21.835938-41.675781 40.339844-67.101562 54.550781zm0 0" fill="#b0dde9"/><path d="m91.976562 50.507812v404.207032c0 .324218-.382812.503906-.632812.296875-10.804688-8.894531-20.851562-18.675781-30.027344-29.234375v-375.703125c0-8.710938 7.269532-15.722657 16.070313-15.308594 8.246093.386719 14.589843 7.488281 14.589843 15.742187zm295.34375 31.25h-255.488281c-5.644531 0-10.21875 4.574219-10.21875 10.21875v194.171876c0 5.644531 4.574219 10.21875 10.21875 10.21875h255.488281c5.644532 0 10.21875-4.574219 10.21875-10.21875v-194.171876c0-5.644531-4.574218-10.21875-10.21875-10.21875zm-66.425781 250.378907h-122.636719c-2.820312 0-5.109374 2.285156-5.109374 5.109375v10.21875c0 2.820312 2.289062 5.109375 5.109374 5.109375h122.636719c2.820313 0 5.109375-2.289063 5.109375-5.109375v-10.21875c0-2.824219-2.289062-5.109375-5.109375-5.109375zm-26.570312 35.765625h-69.492188c-2.824219 0-5.113281 2.289062-5.113281 5.113281v10.21875c0 2.820313 2.289062 5.109375 5.113281 5.109375h69.492188c2.820312 0 5.109375-2.289062 5.109375-5.109375v-10.21875c0-2.824219-2.289063-5.113281-5.109375-5.113281zm0 0" fill="#8ed0e1"/><path d="m180.40625 117.488281c0-2.714843 2.199219-4.910156 4.914062-4.910156h13.09375c2.710938 0 4.910157 2.195313 4.910157 4.910156 0 2.710938-2.199219 4.910157-4.910157 4.910157h-13.09375c-2.714843 0-4.914062-2.199219-4.914062-4.910157zm167.996094 21.445313v108.351562c0 9.957032-8.070313 18.027344-18.027344 18.027344h-141.59375c-9.957031 0-18.03125-8.070312-18.03125-18.027344v-113.265625c0-3.613281 2.933594-6.546875 6.546875-6.546875h29.136719c3.617187 0 6.550781 2.933594 6.550781 6.546875h21.277344v-11.785156c0-5.421875 4.398437-9.820313 9.820312-9.820313h58.929688c5.421875 0 9.820312 4.398438 9.820312 9.820313v11.785156h30.660157c2.710937.003907 4.910156 2.199219 4.910156 4.914063zm-102.683594-8.511719c0 2.710937 2.199219 4.910156 4.910156 4.910156h45.835938c2.710937 0 4.910156-2.199219 4.910156-4.910156v-3.273437c0-2.714844-2.199219-4.914063-4.910156-4.914063h-45.835938c-2.710937 0-4.910156 2.199219-4.910156 4.914063zm78.574219 65.476563c0-28.027344-22.722657-50.746094-50.746094-50.746094s-50.742187 22.71875-50.742187 50.746094c0 28.023437 22.71875 50.742187 50.742187 50.742187s50.746094-22.71875 50.746094-50.742187zm-50.746094-37.652344c-20.792969 0-37.648437 16.859375-37.648437 37.652344 0 20.789062 16.855468 37.648437 37.648437 37.648437s37.648437-16.859375 37.648437-37.648437c0-20.792969-16.855468-37.652344-37.648437-37.652344zm0 0" fill="#0da9cb"/><path d="m121.613281 429.222656h51.097657v61.316406h-23.90625c-21.144532-8.6875-40.109376-21.238281-57.46875-35.53125 2.332031-14.617187 15.003906-25.785156 30.277343-25.785156zm0 0" fill="#fadeb9"/><path d="m142.050781 459.878906c0-16.929687 13.726563-30.65625 30.660157-30.65625h265.707031v51.097656c0 5.644532-4.574219 10.21875-10.21875 10.21875h-255.488281c-16.933594 0-30.660157-13.726562-30.660157-30.660156zm0 0" fill="#fff5f5"/><path d="m438.417969 453.066406h-250.378907c-2.820312 0-5.109374-2.289062-5.109374-5.109375 0-2.820312 2.289062-5.109375 5.109374-5.109375h250.378907zm0 13.628906h-250.378907c-2.820312 0-5.109374 2.285157-5.109374 5.109376 0 2.820312 2.289062 5.109374 5.109374 5.109374h250.378907zm0 0" fill="#fadeb9"/><path d="m394.476562 16.367188v102.527343c0 3.503907-3.703124 5.765625-6.820312 4.171875l-40.792969-20.871094-42.734375 21.035157c-3.113281 1.53125-6.753906-.734375-6.753906-4.203125v-102.660156c0-9.039063-7.328125-16.367188-16.367188-16.367188h97.097657c9.042969 0 16.371093 7.328125 16.371093 16.367188zm0 0" fill="#fd7a7a"/></svg>