<svg width="661" height="431" viewBox="0 0 661 431" fill="none" xmlns="http://www.w3.org/2000/svg">
<path d="M410.244 235.402L343.313 238.098L343.057 231.749L409.989 229.057L410.244 235.402Z" fill="#151714"/>
<path d="M410.244 199.29L343.313 201.983L343.057 195.634L409.989 192.941L410.244 199.29Z" fill="#151714"/>
<path d="M273.953 319.083L255.31 319.834L251.916 235.546L270.56 234.794L273.953 319.083Z" fill="#2F913D"/>
<path d="M241.254 239.076H331.514V230.401H241.254V239.076Z" fill="#2F913D"/>
<path d="M316.677 232.245V219.368C316.677 219.368 255.887 214.44 243.093 225.807C241.89 226.875 239.414 230.93 243.093 232.245H316.677Z" fill="#266B31"/>
<path d="M168.696 65.2327L174.208 52.3015C174.208 52.3015 175.904 49.7598 180.991 49.9719C186.079 50.184 416.503 62.4789 416.503 62.4789C416.503 62.4789 422.226 62.9031 422.439 69.6869C422.651 76.4671 424.984 183.519 424.984 183.519L472.891 180.341L468.016 44.885L167 33.2228L168.696 65.2327Z" fill="#852F1B"/>
<path d="M385.502 325.806C385.502 325.806 385.844 361.601 385.502 374.529C385.395 378.602 385.053 384.548 399.396 384.548C413.739 384.548 505.605 380.964 505.605 380.964L515.909 337.741L544.969 318.056H618.982L600.608 287.462L556.692 276.71L504.707 291.708L496.18 313.903L385.502 318.056V325.806Z" fill="#100F0D"/>
<path d="M392.721 332.903C392.721 332.903 393.062 368.698 392.721 381.629C392.616 385.702 392.274 391.649 406.617 391.649C420.955 391.649 512.823 388.064 512.823 388.064L523.13 344.838L552.188 325.152H626.201L607.832 294.562L563.909 283.806L511.927 298.804L503.401 321.003L392.721 325.152V332.903Z" fill="#1B1B1D"/>
<path d="M308.796 325.151H186.114V299.918H308.796V325.151Z" fill="#1D1D1A"/>
<path d="M164.177 353.393C164.177 353.393 169.34 361.421 172.791 363.991C174.634 365.361 178.358 366.832 184.08 363.474C189.8 360.116 210.619 341.282 210.619 341.282L163.261 332.902L164.177 353.393Z" fill="#46474C"/>
<path d="M148.749 346.771L150.45 357.754L167.837 354.907L165.549 330.529L142.9 332.902L148.749 346.771Z" fill="#3C3C42"/>
<path d="M333.383 75.1871C333.383 75.1871 347.742 70.0535 354.292 82.0931C354.292 82.0931 355 85.4545 349.158 85.2783L349.69 124.403C349.69 124.403 350.398 128.12 346.681 128.296C342.964 128.472 333.383 128.296 333.383 128.296V75.1871Z" fill="#292928"/>
<path d="M331.514 248.729H308.795V33.2228H331.514V248.729Z" fill="#292928"/>
<path d="M125.284 322.75L126.199 351.348H150.45V323.666L125.284 322.75Z" fill="#313135"/>
<path d="M60.8437 393.995C38.4199 393.995 20.2414 375.819 20.2414 353.394C20.2414 330.971 38.4199 312.792 60.8437 312.792C83.2675 312.792 101.446 330.971 101.446 353.394C101.446 375.819 83.2675 393.995 60.8437 393.995Z" fill="#DDDED5"/>
<path d="M60.8437 391.63C39.726 391.63 22.6066 374.514 22.6066 353.393C22.6066 332.276 39.726 315.157 60.8437 315.157C81.9615 315.157 99.0805 332.276 99.0805 353.393C99.0805 374.514 81.9615 391.63 60.8437 391.63ZM60.8437 301.622C32.2512 301.622 9.07249 324.802 9.07249 353.393C9.07249 381.988 32.2512 405.165 60.8437 405.165C89.4362 405.165 112.615 381.988 112.615 353.393C112.615 324.802 89.4362 301.622 60.8437 301.622Z" fill="#1E1C1B"/>
<path d="M94.3423 292.807L43.1049 291.257V358.157H43.2372C44.2978 367.382 52.1234 374.55 61.6321 374.55C71.1409 374.55 77.0345 366.95 80.0266 358.157L80.1561 358.186L94.3423 292.807Z" fill="#313135"/>
<path d="M17.0103 325.848C35.8326 316.609 52.165 302.891 101.446 323.508C110.436 327.268 123.783 330.004 148.749 327.114C148.749 327.114 128.93 291.951 102.497 272.19C99.853 270.212 104.37 287.267 101.446 285.229C100.243 284.391 99.0168 283.546 97.7665 282.701C60.8437 257.738 24.7089 274.293 3.9479 310.034C1.68223 313.935 -6.90914 337.593 17.0103 325.848Z" fill="#313135"/>
<path d="M60.9379 272.19H24.9717V244.731H60.9379C68.4888 244.731 74.6668 250.911 74.6668 258.46C74.6668 266.013 68.4888 272.19 60.9379 272.19Z" fill="#414147"/>
<path d="M337.133 196.242H329.631V33.2228H337.133V196.242Z" fill="#181617"/>
<path d="M475.224 178.432L423.075 180.977C423.075 180.977 405.481 180.553 404.42 200.904C403.36 221.252 404.42 275.08 404.42 275.08C404.42 275.08 406.117 292.692 391.489 295.233L348.033 297.567L351.851 318.342L449.998 317.282L449.149 196.662L462.717 185.449L477.981 183.519L475.224 178.432Z" fill="#151714"/>
<path d="M177.92 152.617H86.7294L91.1967 250.903C91.1967 250.903 90.4083 266.671 103.548 277.97C116.688 289.273 119.842 315.815 153.48 336.576C153.48 336.576 175.555 343.406 206.828 344.722C238.101 346.038 487.758 335.789 487.758 335.789C487.758 335.789 508.784 335.526 514.565 325.801C520.347 316.077 525.076 308.718 537.426 307.669C549.776 306.615 589.72 305.566 589.72 305.566C589.72 305.566 601.288 303.725 608.648 319.23C616.003 334.735 644.383 326.064 649.116 323.961V318.442L660.417 317.127V303.462L647.801 303.2C647.801 303.2 649.04 289.118 648.718 284.333C648.338 278.624 645.77 275.698 645.77 275.698C645.77 275.698 644.806 266.962 644.912 264.043C649.48 260.729 649.116 235.66 641.756 223.046C641.756 223.046 642.882 217.164 639.392 212.01C638.584 210.815 636.926 208.394 636.499 207.016C641.355 197.52 634.663 183.102 634.663 183.102L467.524 181.525C467.524 181.525 442.557 178.897 441.508 205.439C440.455 231.983 443.61 289.535 443.61 289.535C443.61 289.535 446.761 310.559 427.576 312.133C408.395 313.712 363.718 312.399 363.718 312.399C363.718 312.399 351.628 312.399 351.366 295.053C351.103 277.708 346.11 193.877 346.11 193.877C346.11 193.877 346.11 183.628 339.013 182.576C331.92 181.525 329.817 184.416 329.817 188.883C329.817 193.351 331.92 239.342 331.92 239.342L306.953 240.654C306.953 240.654 300.909 241.179 301.435 251.953C301.96 262.731 302.749 317.918 302.749 317.918L240.203 317.655C240.203 317.655 202.36 315.552 197.893 280.073C193.425 244.598 177.92 152.617 177.92 152.617Z" fill="#2F913D"/>
<path d="M160.178 199.394H123.918C122.399 199.394 121.156 198.151 121.156 196.634V179.032C121.156 177.512 122.399 176.268 123.918 176.268H160.178C161.697 176.268 162.94 177.512 162.94 179.032V196.634C162.94 198.151 161.697 199.394 160.178 199.394Z" fill="#E34658"/>
<path d="M103.548 277.97C112.201 285.412 116.526 299.465 128.074 314.122C124.057 299.634 122.145 281.893 116.951 263.256C110.468 239.993 95.4118 195.3 87.6337 172.511L91.1967 250.904C91.1967 250.904 90.4083 266.671 103.548 277.97Z" fill="#42B54F"/>
<path d="M344.118 279.024H311.311C310.793 279.024 310.369 278.599 310.369 278.082V272.082C310.369 271.564 310.793 271.14 311.311 271.14H344.118C344.636 271.14 345.06 271.564 345.06 272.082V278.082C345.06 278.599 344.636 279.024 344.118 279.024Z" fill="#266B31"/>
<path d="M344.118 310.559H311.311C310.793 310.559 310.369 310.135 310.369 309.617V303.617C310.369 303.099 310.793 302.675 311.311 302.675H344.118C344.636 302.675 345.06 303.099 345.06 303.617V309.617C345.06 310.135 344.636 310.559 344.118 310.559Z" fill="#266B31"/>
<path d="M488.392 306.687H455.588C455.07 306.687 454.646 306.267 454.646 305.745V299.745C454.646 299.228 455.07 298.803 455.588 298.803H488.392C488.91 298.803 489.334 299.228 489.334 299.745V305.749C489.334 306.267 488.91 306.687 488.392 306.687Z" fill="#266B31"/>
<path d="M518.486 275.414H455.588C455.07 275.414 454.646 274.994 454.646 274.472V268.472C454.646 267.955 455.07 267.53 455.588 267.53H518.486C519.004 267.53 519.428 267.955 519.428 268.472V274.472C519.428 274.994 519.004 275.414 518.486 275.414Z" fill="#266B31"/>
<path d="M644.989 266.847H597.439C595.275 266.847 593.499 268.622 593.499 270.791C593.499 272.958 595.275 274.731 597.439 274.731H645.668C645.494 273.073 645.146 269.582 644.989 266.847Z" fill="#266B31"/>
<path d="M639.392 212.01C638.583 210.815 636.929 208.394 636.502 207.016C636.732 206.572 636.904 206.107 637.085 205.643H460.886C458.718 205.643 456.944 207.417 456.944 209.585C456.944 211.753 458.718 213.527 460.886 213.527H640.271C640.016 213.018 639.733 212.511 639.392 212.01Z" fill="#266B31"/>
<path d="M646.097 234.756H460.882C458.716 234.756 456.944 236.528 456.944 238.696C456.944 240.863 458.716 242.639 460.882 242.639H647.437C647.139 240.008 646.695 237.34 646.097 234.756Z" fill="#266B31"/>
<path d="M607.69 281.101C589.419 269.924 551.806 261.756 516.99 277.661C487.828 290.98 486.507 325.075 486.842 335.824C487.439 335.799 487.758 335.788 487.758 335.788C487.758 335.788 508.785 335.522 514.565 325.801C520.346 316.077 525.077 308.718 537.427 307.668C549.778 306.615 589.721 305.565 589.721 305.565C589.721 305.565 601.287 303.724 608.646 319.229C613.43 329.317 627.117 329.17 637.4 327.257C634.362 312.737 624.64 291.469 607.69 281.101Z" fill="#266B31"/>
<path d="M467.764 185.451L463.033 50.8948L178.237 38.2147C178.237 38.2147 170.928 37.999 171.358 45.9521C171.788 53.9052 174.152 137.52 174.152 137.52C174.152 137.52 175.126 144.257 177.92 152.617H86.7291C86.7291 152.617 92.9622 138.676 94.0712 128.538C94.2075 127.289 98.856 127.492 99.3524 126.341C111.558 98.0275 134.137 49.768 146.784 22.6055C150.114 15.4538 155.023 5.11282 178.021 4.47007C201.02 3.82324 296.239 1.24407 296.239 1.24407C296.239 1.24407 420.928 -1.27407 462.39 1.24407C470.119 1.71595 475.64 4.2626 492.485 6.618C511.585 9.29071 535.131 11.4834 546.001 14.3555C550.821 15.6288 555.772 19.5422 562.554 22.5241C571.862 26.6207 583.114 30.2901 588.561 34.9928C595.045 40.5904 604.544 55.3657 610.443 63.2333C611.314 64.3968 616.004 70.6494 616.956 75.352C621.663 98.5319 634.095 168.665 633.916 185.451H467.764Z" fill="#F9AF0B"/>
<path d="M143.894 38.1011C143.894 38.1011 154.281 37.889 153.433 56.1192C152.586 74.3495 146.438 114.2 146.438 114.2C146.438 114.2 144.53 125.438 134.567 127.131C124.604 128.828 107.009 125.226 107.009 125.226L143.894 38.1011Z" fill="#CBCBD0"/>
<path d="M153.437 56.0006L132.447 116.533C132.447 116.533 138.568 119.708 145.011 118.507C146.099 116.131 146.438 114.2 146.438 114.2C146.438 114.2 152.586 74.3495 153.434 56.1193C153.435 56.0761 153.435 56.0402 153.437 56.0006Z" fill="#852F1B"/>
<path d="M435.158 226.253L415.022 230.401C415.022 230.401 411.416 232.537 411.416 236.754C411.416 240.967 413.749 275.414 413.749 275.414C413.749 275.414 414.724 280.584 411.416 285.06C408.138 289.503 398.273 304.775 398.273 304.775L410.568 310.559L432.828 280.397L445.759 293.328L444.487 233.547L435.158 226.253Z" fill="#DDDED5"/>
<path d="M445.759 236.754L432.828 225.473V221.446L445.759 232.724V236.754Z" fill="#2F913D"/>
<path d="M442.79 220.404L432.828 221.446L443.29 232.102L442.79 220.404Z" fill="#266B31"/>
<path d="M559.425 408.106C540.61 408.106 525.352 392.281 525.352 372.764C525.352 353.243 540.61 337.418 559.425 337.418C578.241 337.418 593.498 353.243 593.498 372.764C593.498 392.281 578.241 408.106 559.425 408.106ZM559.425 314.651C528.484 314.651 503.402 340.668 503.402 372.764C503.402 404.856 528.484 430.877 559.425 430.877C590.367 430.877 615.449 404.856 615.449 372.764C615.449 340.668 590.367 314.651 559.425 314.651Z" fill="#1E1C1B"/>
<path d="M584.081 372.763C584.081 386.884 573.045 398.334 559.426 398.334C545.81 398.334 534.771 386.884 534.771 372.763C534.771 358.638 545.81 347.189 559.426 347.189C573.045 347.189 584.081 358.638 584.081 372.763Z" fill="#DDDED5"/>
<path d="M567.949 372.763C567.949 377.641 564.133 381.599 559.43 381.599C554.724 381.599 550.908 377.641 550.908 372.763C550.908 367.88 554.724 363.922 559.43 363.922C564.133 363.922 567.949 367.88 567.949 372.763Z" fill="white"/>
<path d="M60.8437 365.35C55.0745 365.35 50.3974 360.673 50.3974 354.907C50.3974 349.137 55.0745 344.46 60.8437 344.46C66.613 344.46 71.2897 349.137 71.2897 354.907C71.2897 360.673 66.613 365.35 60.8437 365.35Z" fill="#DDDED5"/>
<path d="M94.3423 196.242C94.3423 196.242 99.3433 202.547 113.797 201.76L121.156 236.186C121.156 236.186 107.227 238.814 101.446 232.246L94.3423 196.242Z" fill="#DDDED5"/>
<path d="M559.425 426.441C530.844 426.441 507.675 402.408 507.675 372.764C507.675 343.116 530.844 319.084 559.425 319.084C588.006 319.084 611.175 343.116 611.175 372.764C611.175 402.408 588.006 426.441 559.425 426.441ZM559.425 314.651C528.484 314.651 503.402 340.668 503.402 372.764C503.402 404.856 528.484 430.877 559.425 430.877C590.367 430.877 615.449 404.856 615.449 372.764C615.449 340.668 590.367 314.651 559.425 314.651Z" fill="#343434"/>
</svg>
