<svg width="462" height="314" viewBox="0 0 462 314" fill="none" xmlns="http://www.w3.org/2000/svg">
<path d="M75.2376 290.924C78.1176 290.924 80.3016 291.56 81.7896 292.832C83.3016 294.104 84.0576 295.832 84.0576 298.016C84.0576 300.152 83.3136 301.88 81.8256 303.2C80.3616 304.496 78.2736 305.144 75.5616 305.144C73.7136 305.144 71.9976 304.832 70.4136 304.208C68.8296 303.56 67.6296 302.708 66.8136 301.652L67.4616 300.788C68.2296 301.748 69.3216 302.528 70.7376 303.128C72.1776 303.728 73.7736 304.028 75.5256 304.028C77.9016 304.028 79.7136 303.488 80.9616 302.408C82.2336 301.328 82.8696 299.864 82.8696 298.016C82.8696 296.12 82.2216 294.644 80.9256 293.588C79.6296 292.532 77.6856 292.004 75.0936 292.004H73.6896V291.14L81.5376 280.916H67.6416V279.8H83.1216V280.664L75.2376 290.924ZM99.1688 294.884H108.277V295.964H99.1688V294.884ZM128.697 279.8V305H127.509V280.916H121.173V279.8H128.697ZM158.782 291.824C160.678 292.232 162.142 292.988 163.174 294.092C164.23 295.196 164.758 296.552 164.758 298.16C164.758 300.32 163.918 302.024 162.238 303.272C160.582 304.52 158.29 305.144 155.362 305.144C152.434 305.144 150.142 304.52 148.486 303.272C146.83 302.024 146.002 300.32 146.002 298.16C146.002 296.528 146.506 295.172 147.514 294.092C148.546 292.988 150.022 292.232 151.942 291.824C150.334 291.44 149.086 290.744 148.198 289.736C147.334 288.728 146.902 287.504 146.902 286.064C146.902 284.096 147.658 282.536 149.17 281.384C150.706 280.232 152.77 279.656 155.362 279.656C157.954 279.656 160.018 280.232 161.554 281.384C163.09 282.536 163.858 284.096 163.858 286.064C163.858 287.504 163.414 288.728 162.526 289.736C161.662 290.744 160.414 291.44 158.782 291.824ZM148.126 286.064C148.126 287.672 148.762 288.956 150.034 289.916C151.306 290.852 153.082 291.32 155.362 291.32C157.642 291.32 159.43 290.852 160.726 289.916C162.022 288.956 162.67 287.672 162.67 286.064C162.67 284.432 162.01 283.136 160.69 282.176C159.37 281.216 157.594 280.736 155.362 280.736C153.13 280.736 151.366 281.216 150.07 282.176C148.774 283.136 148.126 284.432 148.126 286.064ZM155.362 304.064C157.93 304.064 159.934 303.536 161.374 302.48C162.838 301.424 163.57 299.996 163.57 298.196C163.57 296.396 162.838 294.98 161.374 293.948C159.934 292.892 157.93 292.364 155.362 292.364C152.794 292.364 150.79 292.892 149.35 293.948C147.934 294.98 147.226 296.396 147.226 298.196C147.226 300.02 147.934 301.46 149.35 302.516C150.79 303.548 152.794 304.064 155.362 304.064ZM185.376 285.884H177.924V284.804H194.052V285.884H186.564V305H185.376V285.884ZM209.246 284.804H210.434V294.236H224.51V284.804H225.698V305H224.51V295.28H210.434V305H209.246V284.804ZM276.973 299.132H264.913L262.177 305H260.917L270.349 284.804H271.537L281.005 305H279.709L276.973 299.132ZM276.505 298.088L270.961 286.136L265.381 298.088H276.505ZM303.514 284.804C306.058 284.804 308.05 285.404 309.49 286.604C310.954 287.78 311.686 289.424 311.686 291.536C311.686 293.672 310.954 295.34 309.49 296.54C308.05 297.716 306.058 298.304 303.514 298.304H297.502V305H296.314V284.804H303.514ZM303.514 297.224C305.77 297.224 307.486 296.732 308.662 295.748C309.862 294.764 310.462 293.36 310.462 291.536C310.462 289.736 309.862 288.344 308.662 287.36C307.486 286.376 305.77 285.884 303.514 285.884H297.502V297.224H303.514ZM343.309 305L338.341 298.16C337.429 298.256 336.721 298.304 336.217 298.304H330.205V305H329.017V284.804H336.217C338.761 284.804 340.753 285.404 342.193 286.604C343.657 287.78 344.389 289.424 344.389 291.536C344.389 293.144 343.957 294.5 343.093 295.604C342.253 296.684 341.065 297.44 339.529 297.872L344.677 305H343.309ZM336.217 297.224C338.473 297.224 340.189 296.732 341.365 295.748C342.565 294.764 343.165 293.36 343.165 291.536C343.165 289.736 342.565 288.344 341.365 287.36C340.189 286.376 338.473 285.884 336.217 285.884H330.205V297.224H336.217ZM361.965 284.804H363.153V305H361.965V284.804ZM382.398 284.804H383.586V303.92H395.502V305H382.398V284.804Z" fill="black"/>
<path d="M16.93 244L12.514 237.92C11.7033 238.005 11.074 238.048 10.626 238.048H5.282V244H4.226V226.048H10.626C12.8873 226.048 14.658 226.581 15.938 227.648C17.2393 228.693 17.89 230.155 17.89 232.032C17.89 233.461 17.506 234.667 16.738 235.648C15.9913 236.608 14.9353 237.28 13.57 237.664L18.146 244H16.93ZM10.626 237.088C12.6313 237.088 14.1567 236.651 15.202 235.776C16.2687 234.901 16.802 233.653 16.802 232.032C16.802 230.432 16.2687 229.195 15.202 228.32C14.1567 227.445 12.6313 227.008 10.626 227.008H5.282V237.088H10.626ZM33.5135 226.048H34.5695V244H33.5135V226.048ZM59.036 244.128C57.2653 244.128 55.6653 243.733 54.236 242.944C52.8067 242.155 51.676 241.067 50.844 239.68C50.0333 238.272 49.628 236.715 49.628 235.008C49.628 233.301 50.0333 231.765 50.844 230.4C51.676 229.013 52.8067 227.925 54.236 227.136C55.6653 226.347 57.2653 225.952 59.036 225.952C60.316 225.952 61.5 226.155 62.588 226.56C63.676 226.944 64.6147 227.541 65.404 228.352L64.732 229.056C63.2813 227.627 61.3827 226.912 59.036 226.912C57.4787 226.912 56.06 227.264 54.78 227.968C53.5213 228.672 52.5187 229.643 51.772 230.88C51.0467 232.117 50.684 233.493 50.684 235.008C50.684 236.523 51.0467 237.899 51.772 239.136C52.5187 240.373 53.5213 241.355 54.78 242.08C56.06 242.784 57.4787 243.136 59.036 243.136C61.34 243.136 63.2387 242.421 64.732 240.992L65.404 241.696C64.6147 242.485 63.6653 243.093 62.556 243.52C61.468 243.925 60.2947 244.128 59.036 244.128ZM85.4935 235.008L81.2695 239.296V244H80.2135V226.048H81.2695V237.856L92.9495 226.048H94.2295L86.2295 234.24L94.8055 244H93.4615L85.4935 235.008ZM112.73 244.128C111.408 244.128 110.149 243.904 108.954 243.456C107.76 242.987 106.842 242.389 106.202 241.664L106.746 240.864C107.344 241.547 108.186 242.101 109.274 242.528C110.384 242.955 111.536 243.168 112.73 243.168C114.501 243.168 115.834 242.827 116.73 242.144C117.648 241.461 118.106 240.576 118.106 239.488C118.106 238.656 117.872 237.995 117.402 237.504C116.933 236.992 116.336 236.608 115.61 236.352C114.906 236.096 113.968 235.829 112.794 235.552C111.472 235.232 110.405 234.923 109.594 234.624C108.784 234.325 108.101 233.856 107.546 233.216C106.992 232.576 106.714 231.712 106.714 230.624C106.714 229.28 107.248 228.171 108.314 227.296C109.402 226.4 110.97 225.952 113.018 225.952C114.064 225.952 115.056 226.091 115.994 226.368C116.954 226.645 117.776 227.04 118.458 227.552L117.978 228.448C116.634 227.403 114.992 226.88 113.05 226.88C111.322 226.88 110.01 227.232 109.114 227.936C108.218 228.64 107.77 229.536 107.77 230.624C107.77 231.456 108.005 232.128 108.474 232.64C108.965 233.152 109.562 233.536 110.266 233.792C110.97 234.048 111.93 234.325 113.146 234.624C114.469 234.944 115.525 235.253 116.314 235.552C117.104 235.851 117.776 236.309 118.33 236.928C118.885 237.547 119.162 238.379 119.162 239.424C119.162 240.789 118.608 241.92 117.498 242.816C116.41 243.691 114.821 244.128 112.73 244.128ZM134.226 226.048H135.282V234.432H147.794V226.048H148.85V244H147.794V235.36H135.282V244H134.226V226.048ZM176.734 238.784H166.014L163.582 244H162.462L170.846 226.048H171.902L180.318 244H179.166L176.734 238.784ZM176.318 237.856L171.39 227.232L166.43 237.856H176.318ZM216.769 226.048L210.561 244H209.473L203.681 227.584L197.857 244H196.737L190.529 226.048H191.681L197.313 242.496L203.169 226.048H204.193L209.985 242.56L215.681 226.048H216.769ZM262.049 244L257.633 237.92C256.822 238.005 256.193 238.048 255.745 238.048H250.401V244H249.345V226.048H255.745C258.006 226.048 259.777 226.581 261.057 227.648C262.358 228.693 263.009 230.155 263.009 232.032C263.009 233.461 262.625 234.667 261.857 235.648C261.11 236.608 260.054 237.28 258.689 237.664L263.265 244H262.049ZM255.745 237.088C257.75 237.088 259.275 236.651 260.321 235.776C261.387 234.901 261.921 233.653 261.921 232.032C261.921 230.432 261.387 229.195 260.321 228.32C259.275 227.445 257.75 227.008 255.745 227.008H250.401V237.088H255.745ZM285.64 244.128C283.358 244.128 281.587 243.477 280.328 242.176C279.07 240.853 278.44 238.944 278.44 236.448V226.048H279.496V236.384C279.496 238.645 280.019 240.341 281.064 241.472C282.131 242.603 283.656 243.168 285.64 243.168C287.624 243.168 289.139 242.603 290.184 241.472C291.251 240.341 291.784 238.645 291.784 236.384V226.048H292.84V236.448C292.84 238.944 292.2 240.853 290.92 242.176C289.662 243.477 287.902 244.128 285.64 244.128ZM324.387 226.048V244H323.523L310.819 227.968V244H309.763V226.048H310.659L323.331 242.112V226.048H324.387ZM371.981 243.008V244H356.813V243.232L366.413 233.568C367.714 232.267 368.589 231.157 369.037 230.24C369.506 229.301 369.741 228.341 369.741 227.36C369.741 225.845 369.218 224.651 368.173 223.776C367.149 222.901 365.677 222.464 363.757 222.464C362.263 222.464 360.962 222.688 359.853 223.136C358.765 223.563 357.826 224.235 357.037 225.152L356.301 224.448C358.029 222.464 360.525 221.472 363.789 221.472C365.943 221.472 367.65 221.995 368.909 223.04C370.167 224.085 370.797 225.504 370.797 227.296C370.797 228.427 370.541 229.515 370.029 230.56C369.517 231.605 368.567 232.821 367.181 234.208L358.445 243.008H371.981ZM393.22 244.128C391.535 244.128 390.031 243.669 388.708 242.752C387.407 241.813 386.394 240.491 385.668 238.784C384.943 237.056 384.58 235.061 384.58 232.8C384.58 230.539 384.943 228.555 385.668 226.848C386.394 225.12 387.407 223.797 388.708 222.88C390.031 221.941 391.535 221.472 393.22 221.472C394.927 221.472 396.431 221.941 397.732 222.88C399.034 223.797 400.047 225.12 400.772 226.848C401.498 228.555 401.86 230.539 401.86 232.8C401.86 235.061 401.498 237.056 400.772 238.784C400.047 240.491 399.034 241.813 397.732 242.752C396.431 243.669 394.927 244.128 393.22 244.128ZM393.22 243.136C394.714 243.136 396.036 242.72 397.188 241.888C398.34 241.056 399.226 239.861 399.844 238.304C400.484 236.747 400.804 234.912 400.804 232.8C400.804 230.688 400.484 228.853 399.844 227.296C399.226 225.739 398.34 224.544 397.188 223.712C396.036 222.88 394.714 222.464 393.22 222.464C391.727 222.464 390.404 222.88 389.252 223.712C388.122 224.544 387.236 225.739 386.596 227.296C385.978 228.853 385.668 230.688 385.668 232.8C385.668 234.912 385.978 236.747 386.596 238.304C387.236 239.861 388.122 241.056 389.252 241.888C390.404 242.72 391.727 243.136 393.22 243.136ZM429.806 243.008V244H414.638V243.232L424.238 233.568C425.539 232.267 426.414 231.157 426.862 230.24C427.331 229.301 427.566 228.341 427.566 227.36C427.566 225.845 427.043 224.651 425.998 223.776C424.974 222.901 423.502 222.464 421.582 222.464C420.088 222.464 418.787 222.688 417.678 223.136C416.59 223.563 415.651 224.235 414.862 225.152L414.126 224.448C415.854 222.464 418.35 221.472 421.614 221.472C423.768 221.472 425.475 221.995 426.734 223.04C427.992 224.085 428.622 225.504 428.622 227.296C428.622 228.427 428.366 229.515 427.854 230.56C427.342 231.605 426.392 232.821 425.006 234.208L416.27 243.008H429.806ZM451.045 244.128C449.36 244.128 447.856 243.669 446.533 242.752C445.232 241.813 444.219 240.491 443.493 238.784C442.768 237.056 442.405 235.061 442.405 232.8C442.405 230.539 442.768 228.555 443.493 226.848C444.219 225.12 445.232 223.797 446.533 222.88C447.856 221.941 449.36 221.472 451.045 221.472C452.752 221.472 454.256 221.941 455.557 222.88C456.859 223.797 457.872 225.12 458.597 226.848C459.323 228.555 459.685 230.539 459.685 232.8C459.685 235.061 459.323 237.056 458.597 238.784C457.872 240.491 456.859 241.813 455.557 242.752C454.256 243.669 452.752 244.128 451.045 244.128ZM451.045 243.136C452.539 243.136 453.861 242.72 455.013 241.888C456.165 241.056 457.051 239.861 457.669 238.304C458.309 236.747 458.629 234.912 458.629 232.8C458.629 230.688 458.309 228.853 457.669 227.296C457.051 225.739 456.165 224.544 455.013 223.712C453.861 222.88 452.539 222.464 451.045 222.464C449.552 222.464 448.229 222.88 447.077 223.712C445.947 224.544 445.061 225.739 444.421 227.296C443.803 228.853 443.493 230.688 443.493 232.8C443.493 234.912 443.803 236.747 444.421 238.304C445.061 239.861 445.947 241.056 447.077 241.888C448.229 242.72 449.552 243.136 451.045 243.136Z" fill="black"/>
<path d="M62.2513 47L55.6273 37.88C54.4113 38.008 53.4673 38.072 52.7953 38.072H44.7793V47H43.1953V20.072H52.7953C56.1873 20.072 58.8433 20.872 60.7633 22.472C62.7153 24.04 63.6913 26.232 63.6913 29.048C63.6913 31.192 63.1153 33 61.9633 34.472C60.8433 35.912 59.2593 36.92 57.2113 37.496L64.0753 47H62.2513ZM52.7953 36.632C55.8033 36.632 58.0913 35.976 59.6593 34.664C61.2593 33.352 62.0593 31.48 62.0593 29.048C62.0593 26.648 61.2593 24.792 59.6593 23.48C58.0913 22.168 55.8033 21.512 52.7953 21.512H44.7793V36.632H52.7953ZM98.1665 47.192C95.5105 47.192 93.1105 46.6 90.9665 45.416C88.8225 44.232 87.1265 42.6 85.8785 40.52C84.6625 38.408 84.0545 36.072 84.0545 33.512C84.0545 30.952 84.6625 28.648 85.8785 26.6C87.1265 24.52 88.8225 22.888 90.9665 21.704C93.1105 20.52 95.5105 19.928 98.1665 19.928C100.823 19.928 103.223 20.52 105.367 21.704C107.511 22.888 109.191 24.52 110.407 26.6C111.655 28.648 112.279 30.952 112.279 33.512C112.279 36.072 111.655 38.408 110.407 40.52C109.191 42.6 107.511 44.232 105.367 45.416C103.223 46.6 100.823 47.192 98.1665 47.192ZM98.1665 45.752C100.535 45.752 102.663 45.224 104.551 44.168C106.471 43.112 107.975 41.656 109.063 39.8C110.151 37.944 110.695 35.864 110.695 33.56C110.695 31.256 110.151 29.176 109.063 27.32C107.975 25.464 106.471 24.008 104.551 22.952C102.663 21.896 100.535 21.368 98.1665 21.368C95.8305 21.368 93.7025 21.896 91.7825 22.952C89.8945 24.008 88.3905 25.464 87.2705 27.32C86.1825 29.176 85.6385 31.256 85.6385 33.56C85.6385 35.864 86.1825 37.944 87.2705 39.8C88.3905 41.656 89.8945 43.112 91.7825 44.168C93.7025 45.224 95.8305 45.752 98.1665 45.752ZM134.948 20.072H136.532V45.56H152.42V47H134.948V20.072ZM172.88 20.072H174.464V45.56H190.352V47H172.88V20.072ZM210.811 20.072H212.395V47H210.811V20.072ZM259.991 20.072V47H258.695L239.639 22.952V47H238.055V20.072H239.399L258.407 44.168V20.072H259.991ZM284.488 19.928C284.968 19.928 285.352 20.088 285.64 20.408C285.928 20.696 286.072 21.064 286.072 21.512C286.072 22.056 285.976 22.632 285.784 23.24L284.344 28.664H283.096L284.296 23.048C283.88 22.984 283.544 22.808 283.288 22.52C283.064 22.232 282.952 21.896 282.952 21.512C282.952 21.064 283.096 20.696 283.384 20.408C283.672 20.088 284.04 19.928 284.488 19.928ZM346.67 47.192C344.014 47.192 341.614 46.6 339.47 45.416C337.326 44.232 335.63 42.6 334.382 40.52C333.166 38.408 332.558 36.072 332.558 33.512C332.558 30.952 333.166 28.648 334.382 26.6C335.63 24.52 337.326 22.888 339.47 21.704C341.614 20.52 344.014 19.928 346.67 19.928C349.326 19.928 351.726 20.52 353.87 21.704C356.014 22.888 357.694 24.52 358.91 26.6C360.158 28.648 360.782 30.952 360.782 33.512C360.782 36.072 360.158 38.408 358.91 40.52C357.694 42.6 356.014 44.232 353.87 45.416C351.726 46.6 349.326 47.192 346.67 47.192ZM346.67 45.752C349.038 45.752 351.166 45.224 353.054 44.168C354.974 43.112 356.478 41.656 357.566 39.8C358.654 37.944 359.198 35.864 359.198 33.56C359.198 31.256 358.654 29.176 357.566 27.32C356.478 25.464 354.974 24.008 353.054 22.952C351.166 21.896 349.038 21.368 346.67 21.368C344.334 21.368 342.206 21.896 340.286 22.952C338.398 24.008 336.894 25.464 335.774 27.32C334.686 29.176 334.142 31.256 334.142 33.56C334.142 35.864 334.686 37.944 335.774 39.8C336.894 41.656 338.398 43.112 340.286 44.168C342.206 45.224 344.334 45.752 346.67 45.752ZM405.388 20.072V47H404.092L385.036 22.952V47H383.452V20.072H384.796L403.804 44.168V20.072H405.388ZM73.5202 80.512H63.5842V79.072H85.0882V80.512H75.1042V106H73.5202V80.512ZM105.347 79.072H106.931V91.648H125.699V79.072H127.283V106H125.699V93.04H106.931V106H105.347V79.072ZM171.604 104.56V106H153.028V79.072H171.028V80.512H154.612V91.648H169.3V93.04H154.612V104.56H171.604ZM239.931 106L233.307 96.88C232.091 97.008 231.147 97.072 230.475 97.072H222.459V106H220.875V79.072H230.475C233.867 79.072 236.523 79.872 238.443 81.472C240.395 83.04 241.371 85.232 241.371 88.048C241.371 90.192 240.795 92 239.643 93.472C238.523 94.912 236.939 95.92 234.891 96.496L241.755 106H239.931ZM230.475 95.632C233.483 95.632 235.771 94.976 237.339 93.664C238.939 92.352 239.739 90.48 239.739 88.048C239.739 85.648 238.939 83.792 237.339 82.48C235.771 81.168 233.483 80.512 230.475 80.512H222.459V95.632H230.475ZM264.806 79.072H266.39V106H264.806V79.072ZM313.41 79.072L301.17 106H299.586L287.346 79.072H289.122L300.402 104.032L311.682 79.072H313.41ZM353.01 104.56V106H334.434V79.072H352.434V80.512H336.018V91.648H350.706V93.04H336.018V104.56H353.01ZM394.797 106L388.173 96.88C386.957 97.008 386.013 97.072 385.341 97.072H377.325V106H375.741V79.072H385.341C388.733 79.072 391.389 79.872 393.309 81.472C395.261 83.04 396.237 85.232 396.237 88.048C396.237 90.192 395.661 92 394.509 93.472C393.389 94.912 391.805 95.92 389.757 96.496L396.621 106H394.797ZM385.341 95.632C388.349 95.632 390.637 94.976 392.205 93.664C393.805 92.352 394.605 90.48 394.605 88.048C394.605 85.648 393.805 83.792 392.205 82.48C390.637 81.168 388.349 80.512 385.341 80.512H377.325V95.632H385.341Z" fill="black"/>
<path d="M283 102.766L300 100L335 92.5L371 86.5L391.5 83L407.391 79.5956" stroke="#DD0101" stroke-opacity="0.87" stroke-width="6"/>
<path d="M283 102.766L300 100L335 92.5L371 86.5L391.5 83L407.391 79.5956" stroke="url(#paint0_linear)" stroke-width="6"/>
<path d="M294.612 118.072C289.928 117.619 284.517 116.533 280.586 119.937C277.009 123.035 274.72 128.539 275.064 133.253C275.959 145.534 291.1 139.549 297.839 136.923" stroke="#D30000" stroke-width="4" stroke-linecap="round" stroke-linejoin="round"/>
<path d="M294.612 118.072C289.928 117.619 284.517 116.533 280.586 119.937C277.009 123.035 274.72 128.539 275.064 133.253C275.959 145.534 291.1 139.549 297.839 136.923" stroke="url(#paint1_linear)" stroke-width="4" stroke-linecap="round" stroke-linejoin="round"/>
<path d="M303.76 112.932C303.414 122.154 302.384 131.356 300.812 140.447" stroke="#D30000" stroke-width="4" stroke-linecap="round" stroke-linejoin="round"/>
<path d="M303.76 112.932C303.414 122.154 302.384 131.356 300.812 140.447" stroke="url(#paint2_linear)" stroke-width="4" stroke-linecap="round" stroke-linejoin="round"/>
<path d="M301.502 132.652C310.558 127.562 319.407 122.138 328.27 116.723" stroke="#D30000" stroke-width="4" stroke-linecap="round" stroke-linejoin="round"/>
<path d="M301.502 132.652C310.558 127.562 319.407 122.138 328.27 116.723" stroke="url(#paint3_linear)" stroke-width="4" stroke-linecap="round" stroke-linejoin="round"/>
<path d="M306.024 131.243C309.513 135.14 313.227 138.758 316.916 142.463" stroke="#D30000" stroke-width="4" stroke-linecap="round" stroke-linejoin="round"/>
<path d="M306.024 131.243C309.513 135.14 313.227 138.758 316.916 142.463" stroke="url(#paint4_linear)" stroke-width="4" stroke-linecap="round" stroke-linejoin="round"/>
<path d="M343.195 120.216C339.781 120.404 324.076 121.042 330.494 128.602C334.145 132.902 340.577 133.187 344.518 137.034C349.729 142.12 338.691 143.621 335.899 143.59C328.955 143.515 322.769 141.272 316.993 137.663" stroke="#D30000" stroke-width="4" stroke-linecap="round" stroke-linejoin="round"/>
<path d="M343.195 120.216C339.781 120.404 324.076 121.042 330.494 128.602C334.145 132.902 340.577 133.187 344.518 137.034C349.729 142.12 338.691 143.621 335.899 143.59C328.955 143.515 322.769 141.272 316.993 137.663" stroke="url(#paint5_linear)" stroke-width="4" stroke-linecap="round" stroke-linejoin="round"/>
<path d="M354.005 122.686C352.592 131.036 351.164 139.382 349.719 147.726" stroke="#D30000" stroke-width="4" stroke-linecap="round" stroke-linejoin="round"/>
<path d="M354.005 122.686C352.592 131.036 351.164 139.382 349.719 147.726" stroke="url(#paint6_linear)" stroke-width="4" stroke-linecap="round" stroke-linejoin="round"/>
<path d="M352.096 133.701C359.636 134.707 367.139 135.544 374.697 136.268" stroke="#D30000" stroke-width="4" stroke-linecap="round" stroke-linejoin="round"/>
<path d="M352.096 133.701C359.636 134.707 367.139 135.544 374.697 136.268" stroke="url(#paint7_linear)" stroke-width="4" stroke-linecap="round" stroke-linejoin="round"/>
<path d="M366.672 149.979C371.102 136.745 375.59 123.534 380.099 110.327" stroke="#D30000" stroke-width="4" stroke-linecap="round" stroke-linejoin="round"/>
<path d="M366.672 149.979C371.102 136.745 375.59 123.534 380.099 110.327" stroke="url(#paint8_linear)" stroke-width="4" stroke-linecap="round" stroke-linejoin="round"/>
<path d="M371.904 146.022C376.502 139.756 381.057 133.455 385.764 127.27C386.995 125.652 390.107 121.166 390.297 123.19C390.779 128.319 389.729 133.69 389.418 138.8C389.01 145.495 389.725 151.958 390.225 158.622" stroke="#D30000" stroke-width="4" stroke-linecap="round" stroke-linejoin="round"/>
<path d="M371.904 146.022C376.502 139.756 381.057 133.455 385.764 127.27C386.995 125.652 390.107 121.166 390.297 123.19C390.779 128.319 389.729 133.69 389.418 138.8C389.01 145.495 389.725 151.958 390.225 158.622" stroke="url(#paint9_linear)" stroke-width="4" stroke-linecap="round" stroke-linejoin="round"/>
<path d="M388.084 143.239C383.617 140.963 379.149 138.687 374.682 136.412" stroke="#D30000" stroke-width="4" stroke-linecap="round" stroke-linejoin="round"/>
<path d="M388.084 143.239C383.617 140.963 379.149 138.687 374.682 136.412" stroke="url(#paint10_linear)" stroke-width="4" stroke-linecap="round" stroke-linejoin="round"/>
<path d="M399.182 129.419C398.589 137.823 396.561 146.042 395.28 154.355C395.134 155.305 394.301 160.222 394.628 162.105C394.867 163.484 396.64 161.578 396.698 161.517C399.349 158.743 401.447 155.427 403.749 152.372C404.262 151.692 407.782 145.851 409.109 148.583C409.874 150.158 410.012 165.926 412.143 165.373C413.384 165.051 414.993 162.863 415.473 162.249C417.817 159.251 419.357 156.662 421.359 153.328C428.898 140.765 436.367 128.188 444.07 115.723" stroke="#D30000" stroke-width="4" stroke-linecap="round" stroke-linejoin="round"/>
<path d="M399.182 129.419C398.589 137.823 396.561 146.042 395.28 154.355C395.134 155.305 394.301 160.222 394.628 162.105C394.867 163.484 396.64 161.578 396.698 161.517C399.349 158.743 401.447 155.427 403.749 152.372C404.262 151.692 407.782 145.851 409.109 148.583C409.874 150.158 410.012 165.926 412.143 165.373C413.384 165.051 414.993 162.863 415.473 162.249C417.817 159.251 419.357 156.662 421.359 153.328C428.898 140.765 436.367 128.188 444.07 115.723" stroke="url(#paint11_linear)" stroke-width="4" stroke-linecap="round" stroke-linejoin="round"/>
<defs>
<linearGradient id="paint0_linear" x1="344.274" y1="72.7978" x2="340.117" y2="109.564" gradientUnits="userSpaceOnUse">
<stop stop-color="#E7AAAA" stop-opacity="0"/>
<stop offset="1" stop-color="#B91919"/>
</linearGradient>
<linearGradient id="paint1_linear" x1="288.239" y1="117.389" x2="285.703" y2="141.057" gradientUnits="userSpaceOnUse">
<stop stop-color="#B88080" stop-opacity="0"/>
<stop offset="1" stop-color="#BC0606"/>
</linearGradient>
<linearGradient id="paint2_linear" x1="303.99" y1="112.957" x2="301.042" y2="140.472" gradientUnits="userSpaceOnUse">
<stop stop-color="#B88080" stop-opacity="0"/>
<stop offset="1" stop-color="#BC0606"/>
</linearGradient>
<linearGradient id="paint3_linear" x1="315.881" y1="115.396" x2="313.89" y2="133.979" gradientUnits="userSpaceOnUse">
<stop stop-color="#B88080" stop-opacity="0"/>
<stop offset="1" stop-color="#BC0606"/>
</linearGradient>
<linearGradient id="paint4_linear" x1="312.002" y1="131.883" x2="310.937" y2="141.823" gradientUnits="userSpaceOnUse">
<stop stop-color="#B88080" stop-opacity="0"/>
<stop offset="1" stop-color="#BC0606"/>
</linearGradient>
<linearGradient id="paint5_linear" x1="333.53" y1="119.181" x2="330.955" y2="143.213" gradientUnits="userSpaceOnUse">
<stop stop-color="#B88080" stop-opacity="0"/>
<stop offset="1" stop-color="#BC0606"/>
</linearGradient>
<linearGradient id="paint6_linear" x1="353.212" y1="122.601" x2="350.512" y2="147.811" gradientUnits="userSpaceOnUse">
<stop stop-color="#B88080" stop-opacity="0"/>
<stop offset="1" stop-color="#BC0606"/>
</linearGradient>
<linearGradient id="paint7_linear" x1="363.404" y1="134.912" x2="363.384" y2="135.101" gradientUnits="userSpaceOnUse">
<stop stop-color="#B88080" stop-opacity="0"/>
<stop offset="1" stop-color="#BC0606"/>
</linearGradient>
<linearGradient id="paint8_linear" x1="375.561" y1="109.841" x2="371.209" y2="150.465" gradientUnits="userSpaceOnUse">
<stop stop-color="#B88080" stop-opacity="0"/>
<stop offset="1" stop-color="#BC0606"/>
</linearGradient>
<linearGradient id="paint9_linear" x1="384.305" y1="122.069" x2="380.501" y2="157.58" gradientUnits="userSpaceOnUse">
<stop stop-color="#B88080" stop-opacity="0"/>
<stop offset="1" stop-color="#BC0606"/>
</linearGradient>
<linearGradient id="paint10_linear" x1="381.669" y1="137.16" x2="381.098" y2="142.49" gradientUnits="userSpaceOnUse">
<stop stop-color="#B88080" stop-opacity="0"/>
<stop offset="1" stop-color="#BC0606"/>
</linearGradient>
<linearGradient id="paint11_linear" x1="421.934" y1="113.352" x2="416.31" y2="165.848" gradientUnits="userSpaceOnUse">
<stop stop-color="#B88080" stop-opacity="0"/>
<stop offset="1" stop-color="#BC0606"/>
</linearGradient>
</defs>
</svg>
