<svg width="590" height="170" viewBox="0 0 590 170" fill="none" xmlns="http://www.w3.org/2000/svg">
<path d="M59.9431 84.7199C62.0551 85.0399 63.6391 85.7759 64.6951 86.9279C65.7831 88.0799 66.3271 89.5999 66.3271 91.4879C66.3271 93.7599 65.4791 95.5039 63.7831 96.7199C62.1191 97.9359 59.6231 98.5439 56.2951 98.5439H44.3911V71.6159H55.5271C58.4391 71.6159 60.7271 72.2079 62.3911 73.3919C64.0551 74.5759 64.8871 76.2719 64.8871 78.4799C64.8871 80.0799 64.4551 81.4079 63.5911 82.4639C62.7271 83.5199 61.5111 84.2719 59.9431 84.7199ZM45.9751 73.0079V84.2399H55.5751C58.0071 84.2399 59.8951 83.7599 61.2391 82.7999C62.5831 81.8079 63.2551 80.3999 63.2551 78.5759C63.2551 76.7519 62.5831 75.3759 61.2391 74.4479C59.9271 73.4879 58.0391 73.0079 55.5751 73.0079H45.9751ZM56.3911 97.1999C61.9591 97.1999 64.7431 95.2479 64.7431 91.3439C64.7431 89.3599 64.0391 87.9039 62.6311 86.9759C61.2231 86.0479 59.1431 85.5839 56.3911 85.5839H45.9751V97.1999H56.3911ZM85.3786 71.6159H86.9626V98.5439H85.3786V71.6159ZM128.27 85.2479H129.806V95.2799C128.622 96.3999 127.198 97.2639 125.534 97.8719C123.87 98.4479 122.094 98.7359 120.206 98.7359C117.518 98.7359 115.086 98.1439 112.91 96.9599C110.734 95.7759 109.022 94.1439 107.774 92.0639C106.558 89.9519 105.95 87.6159 105.95 85.0559C105.95 82.4959 106.558 80.1919 107.774 78.1439C109.022 76.0639 110.718 74.4319 112.862 73.2479C115.038 72.0639 117.47 71.4719 120.158 71.4719C122.142 71.4719 123.95 71.7759 125.582 72.3839C127.246 72.9599 128.67 73.8559 129.854 75.0719L128.894 76.1279C126.622 73.9839 123.726 72.9119 120.206 72.9119C117.838 72.9119 115.678 73.4399 113.726 74.4959C111.806 75.5519 110.286 77.0079 109.166 78.8639C108.078 80.7199 107.534 82.7839 107.534 85.0559C107.534 87.3279 108.078 89.3919 109.166 91.2479C110.286 93.1039 111.806 94.5759 113.726 95.6639C115.678 96.7199 117.838 97.2479 120.206 97.2479C123.502 97.2479 126.19 96.3679 128.27 94.6079V85.2479ZM209.84 71.6159L200.528 98.5439H198.896L190.208 73.9199L181.472 98.5439H179.792L170.48 71.6159H172.208L180.656 96.2879L189.44 71.6159H190.976L199.664 96.3839L208.208 71.6159H209.84ZM228.563 71.6159H230.147V84.1919H248.915V71.6159H250.499V98.5439H248.915V85.5839H230.147V98.5439H228.563V71.6159ZM291.22 97.1039V98.5439H272.644V71.6159H290.644V73.0559H274.228V84.1919H288.916V85.5839H274.228V97.1039H291.22ZM328.926 97.1039V98.5439H310.35V71.6159H328.35V73.0559H311.934V84.1919H326.622V85.5839H311.934V97.1039H328.926ZM348.057 71.6159H349.641V97.1039H365.529V98.5439H348.057V71.6159ZM388.638 98.7359C386.654 98.7359 384.766 98.3999 382.974 97.7279C381.182 97.0239 379.806 96.1279 378.846 95.0399L379.662 93.8399C380.558 94.8639 381.822 95.6959 383.454 96.3359C385.118 96.9759 386.846 97.2959 388.638 97.2959C391.294 97.2959 393.294 96.7839 394.638 95.7599C396.014 94.7359 396.702 93.4079 396.702 91.7759C396.702 90.5279 396.35 89.5359 395.646 88.7999C394.942 88.0319 394.046 87.4559 392.958 87.0719C391.902 86.6879 390.494 86.2879 388.734 85.8719C386.75 85.3919 385.15 84.9279 383.934 84.4799C382.718 84.0319 381.694 83.3279 380.862 82.3679C380.03 81.4079 379.614 80.1119 379.614 78.4799C379.614 76.4639 380.414 74.7999 382.014 73.4879C383.646 72.1439 385.998 71.4719 389.07 71.4719C390.638 71.4719 392.126 71.6799 393.534 72.0959C394.974 72.5119 396.206 73.1039 397.23 73.8719L396.51 75.2159C394.494 73.6479 392.03 72.8639 389.118 72.8639C386.526 72.8639 384.558 73.3919 383.214 74.4479C381.87 75.5039 381.198 76.8479 381.198 78.4799C381.198 79.7279 381.55 80.7359 382.254 81.5039C382.99 82.2719 383.886 82.8479 384.942 83.2319C385.998 83.6159 387.438 84.0319 389.262 84.4799C391.246 84.9599 392.83 85.4239 394.014 85.8719C395.198 86.3199 396.206 87.0079 397.038 87.9359C397.87 88.8639 398.286 90.1119 398.286 91.6799C398.286 93.7279 397.454 95.4239 395.79 96.7679C394.158 98.0799 391.774 98.7359 388.638 98.7359ZM448.142 85.0559L441.806 91.4879V98.5439H440.222V71.6159H441.806V89.3279L459.326 71.6159H461.246L449.246 83.9039L462.11 98.5439H460.094L448.142 85.0559ZM498.005 97.1039V98.5439H479.429V71.6159H497.429V73.0559H481.013V84.1919H495.701V85.5839H481.013V97.1039H498.005ZM535.711 97.1039V98.5439H517.135V71.6159H535.135V73.0559H518.719V84.1919H533.407V85.5839H518.719V97.1039H535.711ZM564.441 71.6159C567.833 71.6159 570.489 72.4159 572.409 74.0159C574.361 75.5839 575.337 77.7759 575.337 80.5919C575.337 83.4399 574.361 85.6639 572.409 87.2639C570.489 88.8319 567.833 89.6159 564.441 89.6159H556.425V98.5439H554.841V71.6159H564.441ZM564.441 88.1759C567.449 88.1759 569.737 87.5199 571.305 86.2079C572.905 84.8959 573.705 83.0239 573.705 80.5919C573.705 78.1919 572.905 76.3359 571.305 75.0239C569.737 73.7119 567.449 73.0559 564.441 73.0559H556.425V88.1759H564.441ZM156.597 157.736C153.941 157.736 151.541 157.144 149.397 155.96C147.253 154.776 145.557 153.144 144.309 151.064C143.093 148.952 142.485 146.616 142.485 144.056C142.485 141.496 143.093 139.192 144.309 137.144C145.557 135.064 147.253 133.432 149.397 132.248C151.541 131.064 153.941 130.472 156.597 130.472C159.253 130.472 161.653 131.064 163.797 132.248C165.941 133.432 167.621 135.064 168.837 137.144C170.085 139.192 170.709 141.496 170.709 144.056C170.709 146.616 170.085 148.952 168.837 151.064C167.621 153.144 165.941 154.776 163.797 155.96C161.653 157.144 159.253 157.736 156.597 157.736ZM156.597 156.296C158.965 156.296 161.093 155.768 162.981 154.712C164.901 153.656 166.405 152.2 167.493 150.344C168.581 148.488 169.125 146.408 169.125 144.104C169.125 141.8 168.581 139.72 167.493 137.864C166.405 136.008 164.901 134.552 162.981 133.496C161.093 132.44 158.965 131.912 156.597 131.912C154.261 131.912 152.133 132.44 150.213 133.496C148.325 134.552 146.821 136.008 145.701 137.864C144.613 139.72 144.069 141.8 144.069 144.104C144.069 146.408 144.613 148.488 145.701 150.344C146.821 152.2 148.325 153.656 150.213 154.712C152.133 155.768 154.261 156.296 156.597 156.296ZM211.715 130.616V157.544H210.419L191.363 133.496V157.544H189.779V130.616H191.123L210.131 154.712V130.616H211.715ZM261.264 132.056H251.328V130.616H272.832V132.056H262.848V157.544H261.264V132.056ZM300.003 157.736C296.579 157.736 293.923 156.76 292.035 154.808C290.147 152.824 289.203 149.96 289.203 146.216V130.616H290.787V146.12C290.787 149.512 291.571 152.056 293.139 153.752C294.739 155.448 297.027 156.296 300.003 156.296C302.979 156.296 305.251 155.448 306.819 153.752C308.419 152.056 309.219 149.512 309.219 146.12V130.616H310.803V146.216C310.803 149.96 309.843 152.824 307.923 154.808C306.035 156.76 303.395 157.736 300.003 157.736ZM351.644 157.544L345.02 148.424C343.804 148.552 342.86 148.616 342.188 148.616H334.172V157.544H332.588V130.616H342.188C345.58 130.616 348.236 131.416 350.156 133.016C352.108 134.584 353.084 136.776 353.084 139.592C353.084 141.736 352.508 143.544 351.356 145.016C350.236 146.456 348.652 147.464 346.604 148.04L353.468 157.544H351.644ZM342.188 147.176C345.196 147.176 347.484 146.52 349.052 145.208C350.652 143.896 351.452 142.024 351.452 139.592C351.452 137.192 350.652 135.336 349.052 134.024C347.484 132.712 345.196 132.056 342.188 132.056H334.172V147.176H342.188ZM394.855 130.616V157.544H393.559L374.503 133.496V157.544H372.919V130.616H374.263L393.271 154.712V130.616H394.855ZM417 130.616H418.584V157.544H417V130.616ZM462.58 130.616V157.544H461.284L442.228 133.496V157.544H440.644V130.616H441.988L460.996 154.712V130.616H462.58ZM483.477 130.472C483.957 130.472 484.341 130.632 484.629 130.952C484.917 131.24 485.061 131.608 485.061 132.056C485.061 132.6 484.965 133.176 484.773 133.784L483.333 139.208H482.085L483.285 133.592C482.869 133.528 482.533 133.352 482.277 133.064C482.053 132.776 481.941 132.44 481.941 132.056C481.941 131.608 482.085 131.24 482.373 130.952C482.661 130.632 483.029 130.472 483.477 130.472Z" fill="black"/>
<path d="M41.9448 70.5439C50.9724 74.1119 59.924 77.6666 68.4991 81.7863C85.3057 89.8606 100.43 99.283 115.683 108.792" stroke="#DD0101" stroke-opacity="0.92" stroke-width="5" stroke-linejoin="round"/>
<path d="M41.9448 70.5439C50.9724 74.1119 59.924 77.6666 68.4991 81.7863C85.3057 89.8606 100.43 99.283 115.683 108.792" stroke="url(#paint0_linear)" stroke-width="5" stroke-linejoin="round"/>
<path d="M123.935 71.9153C106.853 77.016 90.8601 84.2252 75.3875 91.4582C62.6656 97.4052 50.6165 104.032 38.4536 110.544" stroke="#DD0101" stroke-opacity="0.92" stroke-width="5" stroke-linejoin="round"/>
<path d="M123.935 71.9153C106.853 77.016 90.8601 84.2252 75.3875 91.4582C62.6656 97.4052 50.6165 104.032 38.4536 110.544" stroke="url(#paint1_linear)" stroke-width="5" stroke-linejoin="round"/>
<path d="M13.8284 26.3169C18.384 42.4738 23.4041 58.4734 28.473 74.4753" stroke="#D30000" stroke-width="3" stroke-linecap="round" stroke-linejoin="round"/>
<path d="M13.8284 26.3169C18.384 42.4738 23.4041 58.4734 28.473 74.4753" stroke="url(#paint2_linear)" stroke-width="3" stroke-linecap="round" stroke-linejoin="round"/>
<path d="M34.9505 31.3862C24.0735 35.1591 12.968 38.3213 2 41.8065" stroke="#D30000" stroke-width="3" stroke-linecap="round" stroke-linejoin="round"/>
<path d="M34.9505 31.3862C24.0735 35.1591 12.968 38.3213 2 41.8065" stroke="url(#paint3_linear)" stroke-width="3" stroke-linecap="round" stroke-linejoin="round"/>
<path d="M42.8361 16.46C45.2593 30.7354 51.2518 43.7698 54.3828 57.8593" stroke="#D30000" stroke-width="3" stroke-linecap="round" stroke-linejoin="round"/>
<path d="M42.8361 16.46C45.2593 30.7354 51.2518 43.7698 54.3828 57.8593" stroke="url(#paint4_linear)" stroke-width="3" stroke-linecap="round" stroke-linejoin="round"/>
<path d="M46.7788 42.6514C52.8807 41.1494 58.9827 39.6474 65.0846 38.1454" stroke="#D30000" stroke-width="3" stroke-linecap="round" stroke-linejoin="round"/>
<path d="M46.7788 42.6514C52.8807 41.1494 58.9827 39.6474 65.0846 38.1454" stroke="url(#paint5_linear)" stroke-width="3" stroke-linecap="round" stroke-linejoin="round"/>
<path d="M58.3256 18.713C62.8113 31.3938 67.3197 44.0658 71.8437 56.7328" stroke="#D30000" stroke-width="3" stroke-linecap="round" stroke-linejoin="round"/>
<path d="M58.3256 18.713C62.8113 31.3938 67.3197 44.0658 71.8437 56.7328" stroke="url(#paint6_linear)" stroke-width="3" stroke-linecap="round" stroke-linejoin="round"/>
<path d="M87.1006 57.8806C82.9574 48.3867 78.8274 38.8916 74.6088 29.4324C73.1389 26.1364 72.064 22.7428 70.9448 19.3193" stroke="#D30000" stroke-width="3" stroke-linecap="round" stroke-linejoin="round"/>
<path d="M87.1006 57.8806C82.9574 48.3867 78.8274 38.8916 74.6088 29.4324C73.1389 26.1364 72.064 22.7428 70.9448 19.3193" stroke="url(#paint7_linear)" stroke-width="3" stroke-linecap="round" stroke-linejoin="round"/>
<path d="M62.6342 18.854C64.4645 17.318 64.5325 17.0961 67.0443 15.9286C70.7597 14.2017 75.2257 12.449 79.4105 12.6376C83.8437 12.8375 87.2878 17.0961 88.5706 21.0184C91.2482 29.205 83.9608 36.0931 79.115 41.6066C78.0853 42.7782 76.5359 44.3709 76.6588 46.0906C76.7609 47.5199 80.4723 46.2858 81.1834 46.1497C84.391 45.5359 87.3793 45.2011 90.6871 45.3076C93.942 45.4124 96.1227 45.607 99.3449 46.1386C102.556 46.6685 105.523 47.6546 108.642 48.5062" stroke="#D30000" stroke-width="3" stroke-linecap="round" stroke-linejoin="round"/>
<path d="M62.6342 18.854C64.4645 17.318 64.5325 17.0961 67.0443 15.9286C70.7597 14.2017 75.2257 12.449 79.4105 12.6376C83.8437 12.8375 87.2878 17.0961 88.5706 21.0184C91.2482 29.205 83.9608 36.0931 79.115 41.6066C78.0853 42.7782 76.5359 44.3709 76.6588 46.0906C76.7609 47.5199 80.4723 46.2858 81.1834 46.1497C84.391 45.5359 87.3793 45.2011 90.6871 45.3076C93.942 45.4124 96.1227 45.607 99.3449 46.1386C102.556 46.6685 105.523 47.6546 108.642 48.5062" stroke="url(#paint8_linear)" stroke-width="3" stroke-linecap="round" stroke-linejoin="round"/>
<path d="M104.353 8.91443C107.649 17.6463 110.989 26.3644 113.798 35.2683C114.113 36.2677 114.43 37.2532 114.792 38.2343" stroke="#D30000" stroke-width="3" stroke-linecap="round" stroke-linejoin="round"/>
<path d="M104.353 8.91443C107.649 17.6463 110.989 26.3644 113.798 35.2683C114.113 36.2677 114.43 37.2532 114.792 38.2343" stroke="url(#paint9_linear)" stroke-width="3" stroke-linecap="round" stroke-linejoin="round"/>
<path d="M130.681 36.9047C124.227 38.1184 118.054 39.7137 111.8 41.6916" stroke="#D30000" stroke-width="3" stroke-linecap="round" stroke-linejoin="round"/>
<path d="M130.681 36.9047C124.227 38.1184 118.054 39.7137 111.8 41.6916" stroke="url(#paint10_linear)" stroke-width="3" stroke-linecap="round" stroke-linejoin="round"/>
<path d="M121.639 23.1422C116.513 24.6632 111.591 26.9365 106.813 29.3253" stroke="#D30000" stroke-width="3" stroke-linecap="round" stroke-linejoin="round"/>
<path d="M121.639 23.1422C116.513 24.6632 111.591 26.9365 106.813 29.3253" stroke="url(#paint11_linear)" stroke-width="3" stroke-linecap="round" stroke-linejoin="round"/>
<path d="M116.121 6.12207C111.016 8.40735 106.115 11.1724 101.162 13.7678" stroke="#D30000" stroke-width="3" stroke-linecap="round" stroke-linejoin="round"/>
<path d="M116.121 6.12207C111.016 8.40735 106.115 11.1724 101.162 13.7678" stroke="url(#paint12_linear)" stroke-width="3" stroke-linecap="round" stroke-linejoin="round"/>
<path d="M126.958 4.39355C129.489 13.6469 132.37 22.8042 134.678 32.1178C135.184 34.1591 135.576 36.2667 136.333 38.2344" stroke="#D30000" stroke-width="3" stroke-linecap="round" stroke-linejoin="round"/>
<path d="M126.958 4.39355C129.489 13.6469 132.37 22.8042 134.678 32.1178C135.184 34.1591 135.576 36.2667 136.333 38.2344" stroke="url(#paint13_linear)" stroke-width="3" stroke-linecap="round" stroke-linejoin="round"/>
<path d="M152.688 37.1705C147.356 36.8944 142.091 37.9555 136.865 38.8991" stroke="#D30000" stroke-width="3" stroke-linecap="round" stroke-linejoin="round"/>
<path d="M152.688 37.1705C147.356 36.8944 142.091 37.9555 136.865 38.8991" stroke="url(#paint14_linear)" stroke-width="3" stroke-linecap="round" stroke-linejoin="round"/>
<path d="M148.632 20.2169C144.284 21.3094 139.932 22.5203 135.513 23.3048C133.62 23.6408 131.909 23.599 130.017 23.6741" stroke="#D30000" stroke-width="3" stroke-linecap="round" stroke-linejoin="round"/>
<path d="M148.632 20.2169C144.284 21.3094 139.932 22.5203 135.513 23.3048C133.62 23.6408 131.909 23.599 130.017 23.6741" stroke="url(#paint15_linear)" stroke-width="3" stroke-linecap="round" stroke-linejoin="round"/>
<path d="M144.311 2C140.467 2.31 136.763 3.38854 133.042 4.36391C129.45 5.30544 125.88 6.31938 122.304 7.31879" stroke="#D30000" stroke-width="3" stroke-linecap="round" stroke-linejoin="round"/>
<path d="M144.311 2C140.467 2.31 136.763 3.38854 133.042 4.36391C129.45 5.30544 125.88 6.31938 122.304 7.31879" stroke="url(#paint16_linear)" stroke-width="3" stroke-linecap="round" stroke-linejoin="round"/>
<defs>
<linearGradient id="paint0_linear" x1="78.814" y1="70.5439" x2="78.814" y2="108.792" gradientUnits="userSpaceOnUse">
<stop offset="0.0260417" stop-color="#E70000" stop-opacity="0"/>
<stop offset="1" stop-color="#B91919"/>
</linearGradient>
<linearGradient id="paint1_linear" x1="81.1944" y1="71.9153" x2="81.1944" y2="110.544" gradientUnits="userSpaceOnUse">
<stop offset="0.0260417" stop-color="#E70000" stop-opacity="0"/>
<stop offset="1" stop-color="#B91919"/>
</linearGradient>
<linearGradient id="paint2_linear" x1="21.1507" y1="26.3169" x2="21.1507" y2="74.4753" gradientUnits="userSpaceOnUse">
<stop stop-color="#E70000" stop-opacity="0"/>
<stop offset="1" stop-color="#B91919"/>
</linearGradient>
<linearGradient id="paint3_linear" x1="18.4752" y1="31.3862" x2="18.4752" y2="41.8065" gradientUnits="userSpaceOnUse">
<stop stop-color="#E70000" stop-opacity="0"/>
<stop offset="1" stop-color="#B91919"/>
</linearGradient>
<linearGradient id="paint4_linear" x1="48.6094" y1="16.46" x2="48.6094" y2="57.8593" gradientUnits="userSpaceOnUse">
<stop stop-color="#E70000" stop-opacity="0"/>
<stop offset="1" stop-color="#B91919"/>
</linearGradient>
<linearGradient id="paint5_linear" x1="55.9317" y1="38.1454" x2="55.9317" y2="42.6514" gradientUnits="userSpaceOnUse">
<stop stop-color="#E70000" stop-opacity="0"/>
<stop offset="1" stop-color="#B91919"/>
</linearGradient>
<linearGradient id="paint6_linear" x1="65.0846" y1="18.713" x2="65.0846" y2="56.7328" gradientUnits="userSpaceOnUse">
<stop stop-color="#E70000" stop-opacity="0"/>
<stop offset="1" stop-color="#B91919"/>
</linearGradient>
<linearGradient id="paint7_linear" x1="79.0227" y1="19.3193" x2="79.0227" y2="57.8806" gradientUnits="userSpaceOnUse">
<stop stop-color="#E70000" stop-opacity="0"/>
<stop offset="1" stop-color="#B91919"/>
</linearGradient>
<linearGradient id="paint8_linear" x1="85.6379" y1="12.6237" x2="85.6379" y2="48.5062" gradientUnits="userSpaceOnUse">
<stop stop-color="#E70000" stop-opacity="0"/>
<stop offset="1" stop-color="#B91919"/>
</linearGradient>
<linearGradient id="paint9_linear" x1="109.572" y1="8.91443" x2="109.572" y2="38.2343" gradientUnits="userSpaceOnUse">
<stop stop-color="#E70000" stop-opacity="0"/>
<stop offset="1" stop-color="#B91919"/>
</linearGradient>
<linearGradient id="paint10_linear" x1="121.241" y1="36.9047" x2="121.241" y2="41.6916" gradientUnits="userSpaceOnUse">
<stop stop-color="#E70000" stop-opacity="0"/>
<stop offset="1" stop-color="#B91919"/>
</linearGradient>
<linearGradient id="paint11_linear" x1="114.226" y1="23.1422" x2="114.226" y2="29.3253" gradientUnits="userSpaceOnUse">
<stop stop-color="#E70000" stop-opacity="0"/>
<stop offset="1" stop-color="#B91919"/>
</linearGradient>
<linearGradient id="paint12_linear" x1="108.642" y1="6.12207" x2="108.642" y2="13.7678" gradientUnits="userSpaceOnUse">
<stop stop-color="#E70000" stop-opacity="0"/>
<stop offset="1" stop-color="#B91919"/>
</linearGradient>
<linearGradient id="paint13_linear" x1="131.645" y1="4.39355" x2="131.645" y2="38.2344" gradientUnits="userSpaceOnUse">
<stop stop-color="#E70000" stop-opacity="0"/>
<stop offset="1" stop-color="#B91919"/>
</linearGradient>
<linearGradient id="paint14_linear" x1="144.776" y1="37.126" x2="144.776" y2="38.8991" gradientUnits="userSpaceOnUse">
<stop stop-color="#E70000" stop-opacity="0"/>
<stop offset="1" stop-color="#B91919"/>
</linearGradient>
<linearGradient id="paint15_linear" x1="139.324" y1="20.2169" x2="139.324" y2="23.6741" gradientUnits="userSpaceOnUse">
<stop stop-color="#E70000" stop-opacity="0"/>
<stop offset="1" stop-color="#B91919"/>
</linearGradient>
<linearGradient id="paint16_linear" x1="133.308" y1="2" x2="133.308" y2="7.31879" gradientUnits="userSpaceOnUse">
<stop stop-color="#E70000" stop-opacity="0"/>
<stop offset="1" stop-color="#B91919"/>
</linearGradient>
</defs>
</svg>
